<svg xmlns="http://www.w3.org/2000/svg" id="svg2" width="100.17" height="100.57" version="1.0"><defs id="defs4"><clipPath id="clipPath3345"><path id="rect2227" d="M222 101h109v80H222z"/></clipPath></defs><style id="style6" type="text/css">.land{fill:#a83c47;stroke:#fff;stroke-width:.6}</style>
<path id="path117" fill="#a83c47" stroke="#fff" stroke-width=".6" d="M86.03 1.15l-4.09.4-1.71 4.09-6.13 2.5L62.97 6.5l-11.13 6.6-4.09-2.91-6.2 4.16-4.54-3.3-2.9-4.95L28 3.6l-4.15 3.3-6.99-.86-.4 10.75 2.05 1.64v8.25l-4.15 4.15v6.6l1.25 4.09v11.94l2.9 2.9V67.5l-6.98-.85-2.9 1.64-5.34 13.2-2.1 7.45-.67 1.45 7.45 1.52h6.13l6.78 4.41 2.77-3.36 12.19 3.7 4.8 2.76 10.88-.4 4.74-4.74 7.5 2.37h4.03l.06.07 1.32-3.1V81.35l-1.38-2.04.72-2.05 5.8-.33 2.7-2.37.33-2.04L74.3 65l.99-3.04 6.78-.66-.65-1.71 1.7-4.09-1.38-3.1 1.72-3.36 6.12-5.15-.72-5.4 1.05-8.84 2.38-4.1 7.7-2.5-1.18-.06-2.11-7.46-5.34-2.04-1.64-9.04z" class="land departement53"/>
</svg>
