<svg xmlns="http://www.w3.org/2000/svg" id="svg2" width="100.17" height="100.57" version="1.0"><defs id="defs4"><clipPath id="clipPath3345"><path id="rect2227" d="M222 101h109v80H222z"/></clipPath></defs><style id="style6" type="text/css">.land{fill:#86aae0;stroke:#fff;stroke-width:.6}</style>
<path id="path83" fill="#86aae0" stroke="#fff" stroke-width=".6" d="M31.99.66L28 3.41l-3.38 1.22-3.39-1.04v11.5l2.17 8.55 1.53 4.91 2.44 6.13-1.53 3.97-2.76 5.23-.63 3.06-2.75.59 1.53 7.07v6.08l-3.7 4.33-.9 5.5 1.53 2.43-.9 2.16v2.17l1.22.27.9 1.26-.32 5.95 3.75-.54 1.67 1.98-.81 5.63 1.13 1.4 4.2-4.24 3.7-.27.81-2.25-4.78-.59-.82-5.04L31 76.05l3.98-.32 3.92 3.7-3.92 5.32 1.13 1.98 5.64.58 3.66-3.1-1.99 4.23.59 3.38 5.91.54 7.9.59 1.13 3.65 4.24 3.1 3.66.28 2.53-2.26 1.44-4.23 2.26 1.98 1.67 1.98L75.87 87l-2.8-.54-1.71-3.65-9.57-2.57-1.18-4.78 3.43-2.25-2.84-1.98.59-2.53 4.51.27 3.93 1.99 3.11-3.65-3.11-2.53.27-3.38 1.71-5.36 5.92-.58 4.78-1.94.5-1.13-5.1-.58-1.8-1.54-2.8-.27-2.76-2.16-3.66-2.16h-4.01l-1.54-1.53-.27-22.94h-.95l-1.22 2.12-2.75 1.84-6.46-1.84-4.92-1.54-2.12.64-.63-1.54 1.53-4.28-.63-4.32 1.26-3.07-3.07-4.28h-4.29z" class="land departement26"/>
</svg>
