<svg xmlns="http://www.w3.org/2000/svg" id="svg2" width="100.17" height="100.57" version="1.0"><defs id="defs4"><clipPath id="clipPath3345"><path id="rect2227" d="M222 101h109v80H222z"/></clipPath></defs><style id="style6" type="text/css">.land{fill:#86aae0;stroke:#fff;stroke-width:.6}</style>
<path id="path1506" fill="#86aae0" fill-opacity="1" stroke="#fff" stroke-dasharray="none" stroke-dashoffset="0" stroke-linecap="butt" stroke-linejoin="miter" stroke-miterlimit="4" stroke-opacity="1" stroke-width=".6" d="M30.44.65l10.27 6.4s6.09 0 6.38.09c.3.08 4.18 1.94 4.18 1.94l6.9 4.87 10.13 10.3 1.68.16 7.27 6.32.95 4.22.51-3.9 1.98.17 1.4 2.43 1.9 6.08 1.91 3.9-.51 3.8-3.08 2.44-4.62 7.54-6.53 12.73-1.25-.08-1.76 3 .59 1.05-5.21 11.92-.44 3.73-2.65 3.4-4.32 2.52-2.28 3.08-3.45-1.54-5.28 1.05 1.1-1.94-2.79-2.68-1.69 1.78-1.39.65-3.81-.48-2.28-.73L33 93l-2.2 2.27-5.43 4.7-6.23-.64-4.85-4.46.81-3.09 2.5-.4 1.61-5.03 3.3-4.21.59-4.46-.15-4.3-.73-.73.73-2.92 2.86-1.94 1.98-8.03-.29-1.62-2.2-.57-1.32-3.49-2.35-.89-3.23-6.08.88-2.1-1.24-1.39-.52-4.86h-.88l-.22-4.87.59-1.05-1.17-4.38.44-4.86 2.12-5.2 3.53-5.18 5.42-6.24-.07-3.81z" class="land departement973" opacity="1" vector-effect="none"/>
</svg>
