<svg xmlns="http://www.w3.org/2000/svg" id="svg2" width="100.17" height="100.57" version="1.0"><defs id="defs4"><clipPath id="clipPath3345"><path id="rect2227" d="M222 101h109v80H222z"/></clipPath></defs><style id="style6" type="text/css">.land{fill:#a83c47;stroke:#fff;stroke-width:.6}</style>
<path id="path15" fill="#a83c47" stroke="#fff" stroke-width=".6" d="M31.45 5.89l-5.79.46-4.47 6.97 1.19 7.36 6.97.85-1.19 3.29-5.39.4-6.11 6.17L15 29.35l1.19-8.21-2.44-2.9-11.1 1.65-2.18 4.4 1.18.66 6.97 11.57v9.33l12.23 12.16v5.26l-4.73 2.7.33.13 14.86 6.3 6.31 7.04 3.02 4.14 8.16 3.68 9.66-.33 15.98 6.64 8.94 1.12 11.18-2.57 4.6-3.61.6-3.1-8.55-9.65h-9.34V72.4l3.35-3.75v-4.08L77.8 60.9l-.72-5.98 4.08-1.84v-5.2l-4.47-.78-.33-5.59-.07-.4-3.75-.25-6.18-4.54L64.72 31l-11.5-.86-8.62-.79-.85-4.93 2.89-6.17-5.33 4.53-8.22-.85-1.64-2.9 5.72-7.75z" class="land departement84"/>
</svg>
