<svg xmlns="http://www.w3.org/2000/svg" id="svg2" width="100.17" height="100.57" version="1.0"><defs id="defs4"><clipPath id="clipPath3345"><path id="rect2227" d="M222 101h109v80H222z"/></clipPath></defs><style id="style6" type="text/css">.land{fill:#a83c47;stroke:#fff;stroke-width:.6}</style>
<path id="path33" fill="#a83c47" stroke="#fff" stroke-width=".6" d="M71.33 17.45l-3.88 4.9h-2.56l-1.56 5.45h-3.11l-1.05-2.34H57.1l-1.56 1.33-1.83-1.05V23.4l-4.11-1.42v1.51l-4.85.78-2.43 2.06.78 4.86h-4.44l-4.43-2.43H31.8v2.84l.42 8.47H24.95l-1.64 3.26-10.53 3.61-4.02-2.79-2.42 3.62-1.2 4.03 4.44 4.08-1.64 5.26-6.13 1.93 1.23 3.34-2.6 3.12 1.55 3.62 3.11 2.33 3.61-2.33 2.61 5.45 5.4-1.84.27-5.17h3.62l-.78-3.12 1.55-.78.55 4.4L25 73.92l2.6-.27L31 78.6l3.61.27L35.88 83l3.66.14.19-1.56 10.29-3.16 1.14-2.56 8-.28 2.57-3.16L77.19 60.1l9.7-6.87 3.93.27 3.52-3.16 5.45-3.11v-3.85l-3.11-7.28-8.51-5.18-1.83-3.11-4.9-2.57-2.88 1.56-1.78-2.1-.78-6.74z" class="land departement34"/>
</svg>
