<svg xmlns="http://www.w3.org/2000/svg" id="svg2" width="100.17" height="100.57" version="1.0"><defs id="defs4"><clipPath id="clipPath3345"><path id="rect2227" d="M222 101h109v80H222z"/></clipPath></defs><style id="style6" type="text/css">.land{fill:#a83c47;stroke:#fff;stroke-width:.6}</style>
<path id="path87" fill="#a83c47" stroke="#fff" stroke-width=".6" d="M60.35 4.7l-1.63 4.08-6.13 1.2-2.4 4.1h-2.9l-4.08-1.21-2.9 4.87-4.44.42-2.89 5.29h-3.67l-2.88 2.88-7.34-.84-2.47 4.08-2.82-.36-4.94 6.13-4.5-1.68-2.11 4.27 1.62 4.14 4.15 3.37-7.51 6.79v5.23l3 1.5-3 3.78 4.14 3.37-3 3.72 3.37 2.29 8.24-.36-.37 8.23 3.13 4.93 1.14-.18 8-3.73 9.57 4.27 7.4 10.57 4.26-.54 6.38-6.37 2.1 3.73 4.27-4.2 5.84 1.55.18 1.27 4.87-3.43-1.5-3.72-2.29-2.29 3-3.72h3.01l1.93-6.01 1.5-3-1.14-6.8 4.87-6.73 6.8-4.14.36-10.52 3.37 1.86 3.78 4.15h3.73l2.29-2.64-1.87-4.51 1.87-6.73-1.14-6.37-2.29-2.64v-5.3l3.43-5.58-.78-5.29-.85-.84L94.33 10h-7.4l-2.4 3.66H80L76.34 10l-1.68-2.47h-9.38L63.23 4.7z" class="land departement19"/>
</svg>
