<svg xmlns="http://www.w3.org/2000/svg" id="svg2" width="100.17" height="100.57" version="1.0"><defs id="defs4"><clipPath id="clipPath3345"><path id="rect2227" d="M222 101h109v80H222z"/></clipPath></defs><style id="style6" type="text/css">.land{fill:#86aae0;stroke:#fff;stroke-width:.6}</style>
<path id="path75" fill="#86aae0" stroke="#fff" stroke-width=".6" d="M24.67.6l-6.08 1-.96 3.7 2.36 4.64.65 19.02-8.07.37-.32 3 5.38 4.32-3.01 2.99-1.03 7.37 4.04 5.34 3.65 8.66 8.77 5.71 3 11-6.4 5.99 1.03 4 9.41 3.05 7.42-6.04 3.66-.32 10.75 4.65-.65 6.36 5.38-.32 4.25 4.86 3.12-.86 5.8-1.07 1.51-6.57 8.01-4.7.75-10.52.27-.16-3.92-.59-3.66 1.44-2.96-1.81 3.66-4.33-1.08-3.26-11.34-1.81L58.54 57v-2.94l2.2-1.81v-2.51l-2.52-1.5 2.15-3.26v-4.7l-4.35-4v-4.01l-2.96-2.89v-3.25l-1.45-5.45 2.2-2.2.38-6.5h6.93l1.83-2.2-2.2-3.63V2.89l-1.83-1.44-1.3 6.84h-3.7l-2.69 2.67-2.04-2.03-10.76-1.66-4.03 2.35h-2.69l-.64-2.35L26 6.26 25.7.9z" class="land departement42"/>
</svg>
