<svg xmlns="http://www.w3.org/2000/svg" id="svg2" width="100.17" height="100.57" version="1.0"><defs id="defs4"><clipPath id="clipPath3345"><path id="rect2227" d="M222 101h109v80H222z"/></clipPath></defs><style id="style6" type="text/css">.land{fill:#86aae0;stroke:#fff;stroke-width:.6}</style>
<path id="path65" fill="#86aae0" stroke="#fff" stroke-width=".6" d="M54.76.72l-8.42 6.65v6.6h-2.09l-.85 6.22-2.1.79-1.66 3.48h-9.27l-.81-1.15h-4.23L22.8 27.2l-.9-.09-.53 1.54-1.9 1.98h-5.37L13 31.9l-2.66-.26L5.5 36.6l-1.62-.48-3.47 2.73 1.05 4.97 2.7 3.75-2.08 2.02.47 5.68 4.28.27-2.42 4.49 1.9 4.49 2.42-1.28 1.1 2.25 3.47-3.22 5.13-.26 5.1 3.48L32.4 67l3.24 5.24 4.56 1.98 2.43 5.72-.29 2.25 2.95 5.02v2.73l5.37 6.47 5.14 2.47 3.23-.75 1.62-1.98 2.42.52 5.56 3.3H76.2l-.42-8.14V89.1h2.52l4.6 2.33h4.62l-.8-4.66 2.51-1.98 5.04-.75v-3.92l5.47-2.34-1.28-5.41h-4.62l-4.18-.8-.86-3.12 3.38-.75v-3.92l3.33-2.73-2.52-1.14-7.13 1.14.42-3.08-5.04-1.98-1.28-9.34v-6.6l-4.18-2.73.42-5.46-8.84-10.09-.86-7.8h-2.9l-1.28-7.79-5.9.8-.8-5.07z" class="land departement12"/>
</svg>
