<svg xmlns="http://www.w3.org/2000/svg" id="svg2" width="100.17" height="100.57" version="1.0"><defs id="defs4"><clipPath id="clipPath3345"><path id="rect2227" d="M222 101h109v80H222z"/></clipPath></defs><style id="style6" type="text/css">.land{fill:#86aae0;stroke:#fff;stroke-width:.6}</style>
<path id="path25" fill="#86aae0" stroke="#fff" stroke-width=".6" d="M40.59.67l-11.14 4-3.18 7.1-7.12-4.75-5.6 17.46-5.72 13.14 8.33 10.22-.57 7.87 5.6 3.94v9.52l1.71 13.46 6.75 2.86-.58 4.44 9.54-1.65L42 89.93l-2.1 1.85 12.27 8.19 10.5-2.16 1.78-2.54-1.47-3.56 4.33-1.08 6.1 5.72 10.44 1.08 4.7-7.18v-6.1l2.87-3.23-2.55-.7v-8.25l-5.72-6.1 4.7-.76 2.48-2.16 1.98-3.8-1.98-1.21 1.15-8.39-6.74-7.3-2.8-14.6-10.11-12.89-7.38 1.78-1.6-5.52h-4l-.76 4.76-10.3 3.17z" class="land departement48"/>
</svg>
