<svg xmlns="http://www.w3.org/2000/svg" id="svg2" width="100.17" height="100.57" version="1.0"><defs id="defs4"><clipPath id="clipPath3345"><path id="rect2227" d="M222 101h109v80H222z"/></clipPath></defs><style id="style6" type="text/css">.land{fill:#86aae0;stroke:#fff;stroke-width:.6}</style>
<path id="path35" fill="#86aae0" stroke="#fff" stroke-width=".6" d="M79.6 21.41l-7 3.78.57 4.14H42.64l.26 5.53 3.2 4.7-13.08 6.42-1.4-.83-10.75.78-1.34 2.74-5.46 1.4-3.65 3.2-10 2.33.57 3.42 4.84 4.55 9.63 2.58.3 5.8 5.16 4.55 3.86-.68 5.5-6.77 6.75-1.3 10.6 3.57 9.02 7.76 2.57-3.26h2.26l2.27 1.6 1.9-.92.31-4.55 9.68-2.28 3.2-4.19 4.83-1.6h6.75l4.22 4.5 5.15.36v-5.17L97.2 60l-4.53-1.97-.72-28.24-4.22-1.96z" class="land departement66"/>
</svg>
