<svg xmlns="http://www.w3.org/2000/svg" id="svg2" width="100.17" height="100.57" version="1.0"><defs id="defs4"><clipPath id="clipPath3345"><path id="rect2227" d="M222 101h109v80H222z"/></clipPath></defs><style id="style6" type="text/css">.land{fill:#86aae0;stroke:#fff;stroke-width:.6}</style>
<path id="path123" fill="#86aae0" stroke="#fff" stroke-width=".6" d="M58.78.69l-2.1 1.7V7.9l-6.88 3.41v5.18l-2.04 2.42H39.1l-4.08-1.7-12.45 6.49h-4.8l-4.96 4.73 1.16.77.33 5.89 7.27 6.16.67 12.72-3.42 4.13-5.18 1.04-5.18 3.08.72 2.76 2.36 3.13v8.15l.72.1 4.8 3.42-1.77 2.2 3.42 1.71 5.45-1h3.2l-.22 1.5-2.98 1.7 1.99 1.49h4.96l1.7 3.96 2.98 1.7L38 98l7.66 1.98 4.74-.5 4.2-3.96 3.74 1.05.93-2.04-.22-2.2 1.99-1.49 3.2 1.99 1.98-1.49v-2.7l2.7-1.76 2.48 1 2.2 2.47 3.97-2.2h4.19l2.97-3.25 1.77-6.38 2.7-.5-.72-6.44 3.2-2.7-1-1.98.39-.66-.94.11-.71-9.24-.72-1.05-.66-4.46-7.22-1.37-3.14-3.8-1-7.6-4.12-.66-.72-3.8-4.8-3.4-2.42-5.9 2.42-4.13-2.42-2.75v-3.41l1.38-3.8-2.76-2.75L62.2 4.1z" class="land departement28"/>
</svg>
