<svg xmlns="http://www.w3.org/2000/svg" id="svg2" width="100.17" height="100.57" version="1.0"><defs id="defs4"><clipPath id="clipPath3345"><path id="rect2227" d="M222 101h109v80H222z"/></clipPath></defs><style id="style6" type="text/css">.land{fill:#a83c47;stroke:#fff;stroke-width:.6}</style>
<path id="path69" fill="#a83c47" stroke="#fff" stroke-width=".6" d="M17.9 5.67l-3.83.4-2.45 4.5-6.55 25.67-.94 2.1-.67 8.12-1.89 2.61V60.8l-1.1 2.67 6.77 4.11 2.66.39 4.17 3.78.72 6.05 4.55-1.5 7.05 2.06.11-1.33h3.4l4.88 4.55 4.55-2.27 2.28-6.78 2.28-2.67 3 .39 3 2.66 1.55 4.9 13.93 17 4.17-3 .72-6.45 4.55-.78V73.25l2.28-1.9.72-10.16.9.72-.12-3.72-1.89-3.45.78-9.78 3.39 1.9 1.89-3.45 3.38-1.12 3.5-2.77h-3.77V32.9l4.16-2.44 6.22-.67.39-3.5-2.11-1.39 5.22-6.61-.72-2.06-5.95-3.17-14.43 15.9H68.6v-4.17l-5.56-2.78-6.6 7.28-5.22.72v-4.89l-4.5-2.05-6.94-9.73-6.28-2.44-2.05-4.5-3.5-.73-3.44 2.45-2.78.72z" class="land departement01"/>
</svg>
