<svg xmlns="http://www.w3.org/2000/svg" id="svg2" width="100.17" height="100.57" version="1.0"><defs id="defs4"><clipPath id="clipPath3345"><path id="rect2227" d="M222 101h109v80H222z"/></clipPath></defs><style id="style6" type="text/css">.land{fill:#a83c47;stroke:#fff;stroke-width:.6}</style>
<path id="path1533" fill="#a83c47" fill-opacity="1" stroke="#fff" stroke-dasharray="none" stroke-dashoffset="0" stroke-linecap="butt" stroke-linejoin="miter" stroke-miterlimit="4" stroke-opacity="1" stroke-width=".6" d="M38.43 6.37c.27.2 3.34 1.8 3.34 1.8l5.48-.2 6.96 2.14 3.8-.13 7.63 3.14 5.02.93 7.42 8.69v8.14l1.27 1.74 2.8 2.47 1.48 5.01 6.68 7.68 4.15 2.34L98 52.79l1.14 3.6.6 3.08-1.87.6-2.28 5.01-1.53 10.22 1.07 9.28-4.48 5.08L76 92l-6.95 2.2-5.48-.8L51.2 90l-11.5-4.21-1.2-1.6-4.88-1.2-2.41-2.95-2.28-2.27-9.02-2.6-.4-1-.34-2.81-5.75-3.8-2.27-5.15 1.27-6.55-2.67-2.33-.4-3.41-7.63-9.08.27-4.08L.45 33.3l3.75-2.87 3 .06 3.88-3.6.74-3.81-1.14-2.34 1.2-5.54 4.35.67h3.54l4.95-4.61 6.09-4.14z" class="land departement974" opacity="1" vector-effect="none"/>
</svg>
