<svg xmlns="http://www.w3.org/2000/svg" id="svg2" width="100.17" height="100.57" version="1.0"><defs id="defs4"><clipPath id="clipPath3345"><path id="rect2227" d="M222 101h109v80H222z"/></clipPath></defs><style id="style6" type="text/css">.land{fill:#86aae0;stroke:#fff;stroke-width:.6}</style>
<path id="path177" fill="#86aae0" stroke="#fff" stroke-width=".6" d="M46.24.61l-2 3.28-2.56 1.68-2-1.95h-4.3l-.82-1.14-2.87 5.37-1.15 2 3.43 4.28-1.14 5.7-3.15 2.55.32 2 1.1 2.82-1.7 1.73-3.42 1.69.55 3.14 1.46.27-2.56 2.28 1.97 4.28 2 6.28-2.55 2.83 4.56-.28-2.28 7.1-3.15 1.42-1.73 4.28 1.73 1.41-2 3.42.59 2.27L30 73.6l.27 9.98 5.98.86 3.7 3.96 6.84 3.42 2.55.86 6.03 6.56-.64.64 5.02-.64v-2.5l5.61-1.14v-1.92h1.37v1.64l4.47-1.36 1.73-2.32-.32.09V87.8l-2.78-2.5v-1.69l2.24-1.1h2.5l-.86-1.4h-1.64l-1.14-2.5V73.6l-1.1-3.1 2.24-5 1.91-5.28-2.23-2.24-.28-1.4 1.42-1.97h3.33v-1.4l-2.78-1.37-.55-1.96 2.78-3.05L72.61 44l1.1-2.24-2.51-1.09-1.69-1.41-.27-3.6-.28-2.23-1.1-1.68.28-3.65 1.37-1.68v-1.91l-1.37-1.14v-2.5l-.86-2.51-1.1-2.23-2.5-1.96-4.75 1.41-2.83.27-1.37 2.5-1.42 1.1-.27-1.1.55-1.95.6-1.68-1.7-2.78.18-3.42h-1.36l-1.14-5.42L47.88.84z" class="land departement55"/>
</svg>
