<svg xmlns="http://www.w3.org/2000/svg" id="svg2" width="100.17" height="100.57" version="1.0"><defs id="defs4"><clipPath id="clipPath3345"><path id="rect2227" d="M222 101h109v80H222z"/></clipPath></defs><style id="style6" type="text/css">.land{fill:#a83c47;stroke:#fff;stroke-width:.6}</style>
<path id="path185" fill="#a83c47" stroke="#fff" stroke-width=".6" d="M27.4.68l-.16.34L12.4 5.25l-2.12 2.62L13 12.1v4.23l4.75 1.02-2.72 2.7.26 2.37.34-.25 5.25 5.25 1.61 6.34L26.73 38l-2.12 5.84v5.25l3.73 4.23-3.73 6.35 3.73 9.05 7.37 5.25 1.1 5.83 6.36 1.02 1.53 11.68 4.83 5.84 8.56 1.6 1.27-8.37L63 87.4l-3.05-4.65h7.71l5.26-7.2-3.65-6.26 1.02-5.67L78.1 60l1.01-5.75 5.17-2.03 4.75-2.12.93.6v-.6l-4.74-5.33-2.97-8.04 4.75-10.32-2.38-7.78-9.23-5.59-13.06-.6-12.2-7.78-9.83 1.78z" class="land departement78"/>
</svg>
