<svg xmlns="http://www.w3.org/2000/svg" id="svg2" width="100.17" height="100.57" version="1.0"><defs id="defs4"><clipPath id="clipPath3345"><path id="rect2227" d="M222 101h109v80H222z"/></clipPath></defs><style id="style6" type="text/css">.land{fill:#86aae0;stroke:#fff;stroke-width:.6}</style>
<path id="path161" fill="#86aae0" stroke="#fff" stroke-width=".6" d="M12.03 17.53l-.78 9.41 6.3 5.72v2.88l-7.71-4.57L.57 42.39l2.46 1.05 3.15-.27L7.6 46l12.55 12.3.87 5.12 2.83 5.16-.96 1.2h3.6l.6.86v3.15l1.74 1.2 3.74-1.47h5.25l2.6 2.01 9.82-.87 7.25 2.06 4.07 4.07 5.2.55 5.2 1.73 6.4-6.08 7.53-2 4.06.54 6.03-.6-.55-3.15-1.42-5.8-.59-3.48 2.6-2.92v-3.75l3.75-4.07-.69-4.02-2.2-.6-2.55-2.55H87.5l-4.3 2.28v-2l-1.1-2.02L79.5 44l-3.14 1.74 1.73-2.56-.27-2.28-3.75-2.61v2.88h-2.55l-5.98-2.01-2.56-2.01-2.6 1.73-.82 2.29-1.14.27-1.42-1.41v-4.03l4.25-2.83-1.7-2.88-3.42 1.46-1.73-1.46-7.12.87-3.7 1.42-3.74-1.42v-2.83l-5.11-2.29-1.42-3.43-2 .83-5.44-4.26-2.56-.86-2 2.56-3.43.86-1.41-3.15z" class="land departement80"/>
</svg>
