<svg xmlns="http://www.w3.org/2000/svg" id="svg2" width="100.17" height="100.57" version="1.0"><defs id="defs4"><clipPath id="clipPath3345"><path id="rect2227" d="M222 101h109v80H222z"/></clipPath></defs><style id="style6" type="text/css">.land{fill:#86aae0;stroke:#fff;stroke-width:.6}</style>
<path id="path31" fill="#86aae0" stroke="#fff" stroke-width=".6" d="M37 14.51l-.45 5.7-5.7-1.78h-6.16l.45-2.18-3.08.45-6.54 2.18-2.19-3.97-4.41 3.97 1.34 3.08-4.86 2.18-.85 4.81-3.97 1.79 3.53 3.92-.9 2.63 15.38 7.44 1.3 10.57V61l.88 7.45H12.9l-2.19 3.08 10.07 8.34 5.7-3.08 7 8.34-1.04.1 1.34.79 12.6-6.15-3.07-4.52-.25-5.31h29.41l-.54-3.97 6.75-3.62 7.83 6.15 4.07 1.89-.25-8.89.35-10.22-3.72.3-3.13-4.62L86.31 43l5.25 4.96 4.67-3.72 3.12-3.08.4-3.28-3.97-.14-1.39-4.47-3.92-.3-3.67-5.36-2.83.3-3.32-1.98-.6-4.77-1.68.85.84 3.37H75.3l-.3 5.6-5.85 2-2.83-5.91-3.92 2.53-3.37-2.53-1.69-3.92 2.83-3.38-1.34-3.62-.34.1h-9.23l-9.63-1.74z" class="land departement11"/>
</svg>
