<svg xmlns="http://www.w3.org/2000/svg" id="svg2" width="100.17" height="100.57" version="1.0"><defs id="defs4"><clipPath id="clipPath3345"><path id="rect2227" d="M222 101h109v80H222z"/></clipPath></defs><style id="style6" type="text/css">.land{fill:#a83c47;stroke:#fff;stroke-width:.6}</style>
<path id="path141" fill="#a83c47" stroke="#fff" stroke-width=".6" d="M40.31.67l-4.1 2.02-3.64 3.01.18 1.22 3.65.98 1.44 3.06 2.2.81-.8 1.8v3.01l-3.43 1.44-2.65 4.81-.18 2.66.99 1.2.4 1.4-3.6 2.03-5.67.58-1.4-1.57-1.61.18-1.62 1.8.18 3.64-3.6.22-.23 3.2-3.24 2.65.4 1.21 2.03 1.62 4.05.58 3.02-1.2 3.82-.19 1.85 1.4-.63 3.82 3.24 4.27v1.8l-1.4 2.42v1l1.62 1.84h2.61l.18 1.17-3.2 2.65.19 1.8-2.03 1.03.81 1.4 2.61 2.2v1.62l-2.79 1.62v2.42l3.83 2.03.8 2.83 2.44 2.2-.23.81-.99 1.22-.22 3.64-.59 1.21 1.62 3.2.59 2.42-2.84 2.84-.13 2.24 6.61-.8 1.35-2.88 3.65-4.18 7.02-1.44 3.69 1.12 3.91-3.06-.27-2.24-1.4-1.13v-4.5l7.57-7.6 2.83 3.1 2.52-2.55 2.25-.27 3.92-5.04 6.48.54.09 1.53 2.16-6.88-1.4-2.52.27-3.64.86-7.33-3.1-3.06.58-6.74-2.84-5.94-.27-3.9-5.08-3.97-.81-3.37 2.52-3.64V14.2l-2.93-3.42-2.88 1.17-1.4-.58-2.02-2.66-1.21-.18-.81.4-.23 4.06-1.8.18-1.4-1.22-3.23-4.45-1.22-1.57-4.63-.23-2.25-2.83h-1.8l-.81 1.03-3.02.4-2.43-2.24L40.45.85z" class="land departement18"/>
</svg>
