<svg xmlns="http://www.w3.org/2000/svg" id="svg2" width="100.17" height="100.57" version="1.0"><defs id="defs4"><clipPath id="clipPath3345"><path id="rect2227" d="M222 101h109v80H222z"/></clipPath></defs><style id="style6" type="text/css">.land{fill:#86aae0;stroke:#fff;stroke-width:.6}</style>
<path id="path19" fill="#86aae0" stroke="#fff" stroke-width=".6" d="M93.67 2.07L90.1 7.42l-5.04 2.98-1.78 3.57-4.46.26v3.25l-1.2 1.78-1.8 4.45-10.64-.26-5.04-2.67-3.3 2.36-6.2-.32-1.51 2.1h1.52l.89 5.6-1.52.63-5.61-3.56v-2.1l-3.26-2.67h-1.78v2.99l-2.68.58-5.66 3.24-3.57 5.98-.9 2.93 2.1.58.32 4.77h-2.1l-3.25-2.99-1.78.32.89 2.67 5.04 5.6-3.26 1.21-2.36-1.47h-5.98l-5.03 4.72-.06-.05-.2 1.94-1.95-2.3-2.62-2.31-1.68 4.92-2.94 2.62-1.26-.1.06.31.26 4.46 3.57.62v4.14l-3.26 1.47.58 4.77 5.93 2.94v3.24l-2.68 3v2.66h7.45l6.82 7.7-.05.16 8.66-2.83 10.7 7.13L44.4 94 45.87 91l8.35-2.67 5.3 3.56 7.7-5.6 8.92.3 2.36-2.4 4.99-.21.1-.05-1.2-3 1.46-1.77-.57-2.36H88l1.2-1.47 4.46-2.4 3.57 2.4 2.36-1.52-5.61-5.03-5.98-5.6-2.05-.64-.31-4.45-3.57-5.3 1.2-7.7 1.8-4.19 3.24-2.67.32-4.14 4.46-2.36.68-.26v-6.34l4.62-.63-2.63-2.3-3.3-1-1.63-4.25 1.31-2.93 5.88-6.24-.95-4.6.84-.9z" class="land departement04"/>
</svg>
