<svg xmlns="http://www.w3.org/2000/svg" id="svg2" width="100.17" height="100.57" version="1.0"><defs id="defs4"><clipPath id="clipPath3345"><path id="rect2227" d="M222 101h109v80H222z"/></clipPath></defs><style id="style6" type="text/css">.land{fill:#a83c47;stroke:#fff;stroke-width:.6}</style>
<path id="path157" fill="#a83c47" stroke="#fff" stroke-width=".6" d="M21.42 10.57l-7.88 3.7-12.3 1.98-.66.12 4.69 7.45 3.27 8.27 5.47.24 2.25 1.73-2.72 1.27v3l3.47 3.73 6.26 1.54 7.77.47 1.73-2.75h2.52l1.22 2.52-3.23 2 .52 5.01 4.49 1.23 4.49.5 1.26 3.24 2.25 1.02-.52 1.74-3.23 1.5-.27 1.5 2.52 3.03 1.73 1.22-.47 1.5-2.01 1.5.75.5 3.23.24 2.76 1.78-.24 2.24-1.5.99-.27 4.02-2.25.24-2.24-.24-2.49 1.5 1.5.51h2.48l2.25.47.75 1.26-1.46 2.8 1.97 1.97 1.97.52 1.97-1.27h2.72l.75 1.5.98-.23 2.96-1.74 2.95 1.74 3.95-2.72h1.73l1.97 1.73 3.94-2.72 1.7.24 1.5 1.22 5.43.51.47 2.2L87 85.66h1.46l.98 3.2 4.7 1.22 1.33-.9h-.4l-.23-2.45 4.93-2.96-.75-4.69-4.69-1.22 1.22-1.26v-3.43l3.7-2.72-.98-1.97-7.88-6.15-13.8.75-1.45 2.44H73.4l.23-8.63-3.94-4.65-2.95.48L65 50.74l-4.92 2.2-1.7-1.7-3.46-.5-.99-3.2-.24-9.85-2.2-.99-.28-1.5h-1.46l-.5-2.95-3.2.28-6.15 1.97-2.95 3.66h-2.96l-1.97-2.44-.75-2.72-2.44-2.72h-3.47l-1.45-2.68v-4.22l1.69-2.68-.99-3.7z" class="land departement59"/>
</svg>
