<svg xmlns="http://www.w3.org/2000/svg" id="svg2" width="100.17" height="100.57" version="1.0"><defs id="defs4"><clipPath id="clipPath3345"><path id="rect2227" d="M222 101h109v80H222z"/></clipPath></defs><style id="style6" type="text/css">.land{fill:#86aae0;stroke:#fff;stroke-width:.6}</style>
<path id="path41" fill="#86aae0" stroke="#fff" stroke-width=".6" d="M28.84 8.36l-4.16 4.7-.3-1.67-3.32.3v2.49l-1.9.54-1.96 4.7-2.5 1.12-4.64-3.62.44 7.19 2.44 3.03 1.23 5.82-3.67 2.74-.88 4.3-3.38 1.82-5.82 3.37.6 2.74 7.03 7.05.64 4.3-2.79 4.55v4.3l1.86 2.16.93 5.18-.59 2.1 9.4 2.75 2.49 5.23h4.94l1.95-1.9 3.33 1.65 1.66.25 4.16 6.36 4.4.3 1.12-2.2 1.23.14 1.27-1.81 5.52-.83 3.04-2.5 3.32-.3v-1.9l2.2-1.13.59 1.37 1.37-.83 2.2 1.42 3.86-.3 3.33-1.36 2.2 1.9h2.5l1.95 3.63 3.03 1.37L80.82 85l2.2 1.96 4.75.24 1.66-3.32 2.74 2.78 3.86 1.13 1.23-1.17-2.4-.79-.93-3.67 5.82-5.47L97 66.62l-7.97-5.24-3.33-7.92-3.66-4.9.93-6.74 2.73-2.74-4.89-3.97.15-1.22-4.3-1.71-1.37-3.33-4.7.25-3.62-.83-.53-3.87-2.8-1.37-3.56 2.2-4.16-.83-2.79.3-9.39-1.37-7.72-4.46-.59-2.2-3.28-3.62 2.2-3.03-.83-1.66z" class="land departement63"/>
</svg>
