<svg xmlns="http://www.w3.org/2000/svg" id="svg2" width="100.17" height="100.57" version="1.0"><defs id="defs4"><clipPath id="clipPath3345"><path id="rect2227" d="M222 101h109v80H222z"/></clipPath></defs><style id="style6" type="text/css">.land{fill:#a83c47;stroke:#fff;stroke-width:.6}</style>
<path id="path73" fill="#a83c47" stroke="#fff" stroke-width=".6" d="M62.07 7.04l-9.26 1.62-8.94 7.27-2.4-3.63-4.47.38-4.08 8.96.45 3.63 4.4 3.63-8.1 5.32-5.24 4.86h-8.94l-4.08 3.25-3.96 1.3-2.2 4.02-3.95-2.2-.9 11.4 2.2 4.03.12 4.34 3.37 2.66v11.48l7.97 1.3 3.05 5.78 7.06.84 1.3-2.6h3.56l6.15 6.62 2.2 2.2 7.07-1.36 1.75-3.5 1.75-7.07 3.95-3.11 3.11-9.21 3.95-2.66 3.11.84.84 2.66-2.2 2.66 3.95 4.86h6.61l4.02 6.62-.9 2.2 3.94-2.65 3.11-3.5 2.73.32.19-7.07 13.8-5.71 1.62-4.02-.84-8.95-8.88-9.28-2.85 1.62v-9.73l-7.7-3.7-.4-3.24 4.47-4.86V20l-7.32-7.71-.39-5.26z" class="land departement74"/>
</svg>
