<svg xmlns="http://www.w3.org/2000/svg" id="svg2" width="100.17" height="100.57" version="1.0"><defs id="defs4"><clipPath id="clipPath3345"><path id="rect2227" d="M222 101h109v80H222z"/></clipPath></defs><style id="style6" type="text/css">.land{fill:#a83c47;stroke:#fff;stroke-width:.6}</style>
<path id="path47" fill="#a83c47" stroke="#fff" stroke-width=".6" d="M30.68 8.34l-8.8 4.54-2.28.1-4.94 26.43-6.4 24.48-1.97 9.48-1.64 6.68L.5 87.17l8 4 7.3-.49 4.28-3.78 3.52 2.76-2 2 1.5.54 1.25-1.78 6.32.49 3.52-2.76 6.54.26 2.54-1.29h4l1.03 1.3 3.25-1.03 3.03 2.27 4.05-1.25 5.3-1.78.75 1.25 8.06.27 4-2.27-1.95-3.43 1.95-5.3 2.76-3.6-.84-4.72 2.22-2.23-3.29-5.56 2.76-3.34 3.07-.58 2.76 1.12 3.92-3.34 1.38 4.18 1.38 1.96 3.07-.84-.27-3.61.9-1.96-.68-1.73.76-5.52 3.03-3.03-1.52-1.78-3.29-.27-3.78-1.47-5.52.5-1.03-6.06L81.03 31l-1.52-.5.54 5.04v1.51l-4.8.22-5.04-1.73-1.02-6.32-3.52-3.79-2.5-.22-.26-2.27-2.76-1.78-4.54-1.25 1.25-1.5v-1.52l-1.52-1.25-1.73-1.51-5.08.76-2.98 2.49-2.05.26-3.25-2.27-4.8 2-2.27-1.5 2.05-2.5.22-3.3z" class="land departement40"/>
</svg>
