<svg xmlns="http://www.w3.org/2000/svg" id="svg2" width="100.17" height="100.57" version="1.0"><defs id="defs4"><clipPath id="clipPath3345"><path id="rect2227" d="M222 101h109v80H222z"/></clipPath></defs><style id="style6" type="text/css">.land{fill:#86aae0;stroke:#fff;stroke-width:.6}</style>
<path id="path137" fill="#86aae0" stroke="#fff" stroke-width=".6" d="M63.23.63l-2.36.83-4.78-.3-5.55 1.89-1.3 2.9-.53-1.07-6.38.3-3.18 2.65-3.72.53-.53 1.84 2.95 3.95-.83 3.49-3.42.23v2.9l-2.66 2.42-2.9 4.78-2.65-2.42-3.95-.77-5.85 2.13-1.36 6.61-1.83 5.32L9.51 53.9 5.5 57.62l-3.25.3.94.94v7.03l-1.47 4.43 7.02 5.55 3.66 3.66 5.9.77 2.25 7.73 4.01 2.19-.7 5.55-2.96.53 1.07.24 9.27.7 3.3-3.3 5.9 5.9 7.38-8.5 3.3 2.25 4.44-.42 1.47.77 6.67.35 2.19-5.9 18.47 2.24 7.03 1.83 3.19-.35.17-2.95 3.72-3.72-.76-3.2-2.13-4.19.77-1.6.3-4.77 1.3-1.6.29-1.06-3.2-2.9L94 62.4l-5.02-2.65v-3.2l3.66-2.12V52.3l-3.42-2.89-1.07-1.83 2.66-1.36-.24-2.36 4.2-3.49-.24-1.53h-3.43l-2.12-2.42v-1.3l1.83-3.2v-2.35l-4.25-5.61.83-5.02-2.43-1.83-5.01.23-3.96 1.6-5.31-.77L68 16.04l-.53-1.6 4.25-3.48.3-4.19-5.61-3.19z" class="land departement36"/>
</svg>
