<svg xmlns="http://www.w3.org/2000/svg" id="svg2" width="100.17" height="100.57" version="1.0"><defs id="defs4"><clipPath id="clipPath3345"><path id="rect2227" d="M222 101h109v80H222z"/></clipPath></defs><style id="style6" type="text/css">.land{fill:#86aae0;stroke:#fff;stroke-width:.6}</style>
<path id="path53" fill="#86aae0" stroke="#fff" stroke-width=".6" d="M35.5 7.95l-3.98.54-3.37 1.02-4.81 1.02-1.32 3.73 1.68 3.73 4.1.36-.67 3.36-3.07 1.03-3.43 4.08-5.77 8.84-2.71 4.75 1.02 5.1 1.69 3.44-3.74 2.34H7.4l-.72 3.79 2.4 2.04.37 3.73-2.77 2.7-6.02.97.9 1.08 1.4 8.17 7.45-.66 5.12 1.99 4.45.36 2.05 2.4-4.1 4.09-1.02 7.45.9 2.35 1.45-3 4.45 3.78 6.02-6.01 2.65 3.73 6.38-1.15 6.8-.72 3-5.29 11.26-1.08 5.65 5.59 1.93-1.86 3.73-1.15-1.5-5.23 5.65-1.5 7.16-1.5-1.56-4.51 2.28-2.65 1.87-7.15-4.15-4.5 2.65-8.6 5.65 3.36 8.3-1.5-3.78-8.3-3.01-11.24 7.52-.36 1.5-3.97-5.9-2.46-2.7-3.07H87l-4.75 4.4-3.73-.3-1.02-2.41 2.7-1.69v-2.4l-3.06-3.37-2.71-.36-1.69 2.04h-7.52l-.66-2.7-2.4-.36-4.1 3.37H50.6l-3.43 3.06-5.78-2.04-.66-7.1z" class="land departement47"/>
</svg>
