<svg xmlns="http://www.w3.org/2000/svg" id="svg2" width="100.17" height="100.57" version="1.0"><defs id="defs4"><clipPath id="clipPath3345"><path id="rect2227" d="M222 101h109v80H222z"/></clipPath></defs><style id="style6" type="text/css">.land{fill:#a83c47;stroke:#fff;stroke-width:.6}</style>
<path id="path173" fill="#a83c47" stroke="#fff" stroke-width=".6" d="M57.92.64l-2.06 1.02-3.36 2.71-3.36-1.03-5.8 2.39-4.72-2.71-2.06 2.7-3.04.33-2.06-1.68-3.36-2-4.07 2.7-.16-.15-1.47 9.37 2.01 11.92v7.97l-2.66 6.66.65 4.61-2.98 2.33 1.63 9-1.3 1.95-.98 9 2.28 2.97-7.6 4.99v6.83l2.12 3.14 4.07 2.06.32 5.74-5.42 3.74 3.04 2.71 3.74-2.38 9.16.32 3.37-.65 1.03-2.7 3.74.32.65 2.7 8.46-4.76 3.09-3.69 4.06-4.77-2.7-3.03 2.38-5.1 6.07-3.03 13.23.65 3.04-2.33.27.27.76-5.69 1.36-6.77 2.38-3.09.33-4.06 4.71-2.01v-2.7l-5.04.32-1.03-2.39 1.68-3.03-1.35-5.1-2.71-1.68.7-4.71 2.71-1.74-.38-2 .98-1.2-5.7-1.18-1.73-4.07-3.04-1.03-9.1-8.78-1.04-7.48z" class="land departement77"/>
</svg>
