<svg xmlns="http://www.w3.org/2000/svg" id="svg2" width="100.17" height="100.57" version="1.0"><defs id="defs4"><clipPath id="clipPath3345"><path id="rect2227" d="M222 101h109v80H222z"/></clipPath></defs><style id="style6" type="text/css">.land{fill:#a83c47;stroke:#fff;stroke-width:.6}</style>
<path id="path107" fill="#a83c47" stroke="#fff" stroke-width=".6" d="M60.9 1l-3.7 4.1-4.09-1.7-7.52.71-1.36 3.4-4.42 1.04-.7-3.78-7.8 1.04v2.4l-5.45.34-2.4-1.7-2.72 1.37-.71 4.1-9.16.33-4.8 5.8 4.1 3.07-5.45 4.49 1.68 3.06-1.36 7.5 5.45.72 2.07-2.08 1.04 1.36 12.92-1.7 8.5-6.12-7.47 7.17.65 3.4 6.82-3.07-1.37 4.81 7.53.33-.33 2.03-8.18-.33-6.48-1.7-7.85-3.78-4.74 5.48 6.1 2.08-.32 9.2L21.07 53l3.76-5.8 7.14 4.1 3.43.71 1.36 5.47-2.07 3.73-4.41-.33h-4.1l-6.8 1.04-11.61.66-2.35 3.12 3.38 2.02 3.76-.33 3.06 2.74 4.41-.33 7.2 8.21 1.68 8.87-2.4 4.82 7.14 1.36 7.85-.38 1.7-3.06-3.06-4.1 3.05 1.36 3.1-.33 5.46 3.07 3.38-.66V83.1l1.36 5.86 4.41 7.17 9.54.66.38-2.03 2.35 3.4L79 99.2h4.41l.28.38 1.63-6.73h3.98l1.96-3.12h2.5l.28-5.04 1.42-1.7-2.78-3.72-1.7 2.03-4.24-3.4-8.72-1.42-1.42-5.1-2.5-6.5-.28-2.52 4.2-3.4H82l5.66-2.73-1.2-4.33 1.7-1.7-.55-9.9-2.56-3.4V32.7l3.98-1.15-4.25-1.43-.28-3.33 1.97-1.43 2.83-2.84-3.1-1.97.27-3.67-4.2-.28 1.96-9.2-5.61-3.28-9.54.33v6.84h-2.73l-.65-3.06-4.09.66z" class="land departement29"/>
</svg>
