<svg xmlns="http://www.w3.org/2000/svg" id="svg2" width="100.17" height="100.57" version="1.0"><defs id="defs4"><clipPath id="clipPath3345"><path id="rect2227" d="M222 101h109v80H222z"/></clipPath></defs><style id="style6" type="text/css">.land{fill:#86aae0;stroke:#fff;stroke-width:.6}</style>
<path id="path169" fill="#86aae0" stroke="#fff" stroke-width=".6" d="M59.56.63l-6.8 1.88-3.15 5.48v5.36l-2.86 2.5h-2.52l-4.63-3.24-3.6 2.5H31.7l-3.55-3.53-6.8-1.08-3.95-1.77-1.43-5.36-3.2 3.53-1.77 8.22-4.69 1.42v4.62l4.69 2.17 3.54 2.5-1.42 3.2 3.25 2.11 5.72-4.28 9.95 5.7-4.23 7.88.34 2.51 2.86 2.85-2.17 7.47-7.15 7.13-3.94-.34 2.51 2.45-1.43 6.45 1.43 9.64 6.8 1.77-.56 1.3 5.37-.28 3.15 3.82 2.8 3.48 7.03-.34 3.15 9.07 5.49 2.4-.06-1.14 9.32-18.2-1.09-10.32 4.3-13.92 1.08-12.15 9.26-6.73v-4.28l3.6-4.67h2.86l3.2-3.2-.68-6.05 3.2-8.55 4.98-1.08-4.98-3.94-8.92-1.03L71.68.63l-5.37 3.2-2.86-3.2z" class="land departement67"/>
</svg>
