<svg xmlns="http://www.w3.org/2000/svg" id="svg2" width="100.17" height="100.57" version="1.0"><defs id="defs4"><clipPath id="clipPath3345"><path id="rect2227" d="M222 101h109v80H222z"/></clipPath></defs><style id="style6" type="text/css">.land{fill:#a83c47;stroke:#fff;stroke-width:.6}</style>
<path id="path61" fill="#a83c47" stroke="#fff" stroke-width=".6" d="M67.37.61l-4.09 1.53-1.25 2.02L60.5 2.4l-2.78-.26-.54 2.55-1.75.72 2.51 1.3L56.2 9.5l-6.37 1.79-2.78-3.32h-2.51l-2.07 1.26H35.1l-.76.31.76 2.74 4.31 4.3-.22 2.3 3.27 3.32h2.07l.98 2.5 2.56.28.76 2.29-2.55 1.03-5.34 2.29-2.52 5.83-2.02 6.06-1.3 1.8-4.04-2.79-9.42-.76-5.07 6.6-2.78 1.52-1.8 2.51-2.02 3.06v1.8L6.7 57.46l-2.56 4.3-.27 2.3 4.58 3.32.76 3.27-1.53 2.56 3.05-1.03 1.53 1.3 1.26 5.3-3.55 2.06.27 2.78-1.8 1.75-2.5-1.26H3.1l.35 15.08 11.4.77.59-13.78 3.9.58 5.79 3.37 2.38-2.2-1.03-1.53v-5.07l2.5-3.05 6.65-1.8.99-3.76-1.53-1.04-.22-4.84 5.83-3.55 3.28-.22 3.32.98 2.78 2.56 1.8.23 1.52-2.52-1.3-1.8-2.29-.75-.22-.77 1.75-2.51 6.1-.54.76-1.48-1.03-1.8-3.54-2.55.76-1.53 1.8-1.25 1.74.49 2.83 3.81.22 2.56 4.85.5.99-2.3-2.29-2.78 1.53.5 5.6 2.56 3.06-.5 2.24-.94-.54-.58 3.6-1.62.76-4.35 4.4-1.98-1.22-2.78 4-3.59 1.97 3.6 5.92-1.98 1.13-.18.08-1.84v-3.6l-3.05.55-3.81-1.04-3.32-4.04-1.26-1.8-6.6-2.77-1.52-2.3 2.02-.75V19.4l-2.02-2.29-2.56-4.08-.22-3.54-.77-.5-3.05-3.59-1.25-3.77z" class="land departement31"/>
</svg>
