<svg xmlns="http://www.w3.org/2000/svg" id="svg2" width="100.17" height="100.57" version="1.0"><defs id="defs4"><clipPath id="clipPath3345"><path id="rect2227" d="M222 101h109v80H222z"/></clipPath></defs><style id="style6" type="text/css">.land{fill:#a83c47;stroke:#fff;stroke-width:.6}</style>
<path id="path145" fill="#a83c47" stroke="#fff" stroke-width=".6" d="M15.3 1.67l-1.8 2.84H10.1L5.5 3.47.4 4.97l.35 3.66 4.34 5.04v6.9l-3.24 4.7 1.04 4.35 6.55 5.1.35 5.04 3.65 7.65-.76 8.7 4 3.94-1.1 9.45-.35 4.7 1.8 3.24-2.78 8.87.23 2.73 6.2 2.9 4.35 4.75 3.94-2.2 3.65-2.15.75 3.25h5.39l1.45-2.9 3.24 1.45 1.1 4.7 2.9-.7 6.9-9.45 3.59 2.55.58 1.1 5.68-3.53 2.31.29 1.8 4.4 3.42-.52 2.6-2.6h3.37L80.3 87l2.61-.52.53-1.86 5.67.3.3-1.34-2.61-2.32v-2.32l3.65-2.09V75.3l-3.42-2.09-.52-3.88.29-3.65-2.32-1.57 2.03-2.84 1.85-1.04 1.28-3.13-1.8-1.05-2.09-3.13 2.61-3.65 4.4-2.61h5.45v-4.12l1.57-.52v-1.56l-2.32-3.66-5.22-1.04-1.8-3.13.76-2.84.52-3.94-.93-2.09-5.79 3.94-2.38 1.05-3.13-2.1.3-5.2h-3.42l-2.84 1.85-.76-2.38 1.57-2.6-1.86-2.33-2.08 3.13.29 2.32-4.93-.23-7.82-7.3-5.97-.24V9.73l-4.17-2.6L47 3.75l-1.28-.23v6.5l-2.32.51L40 9.5l-3.6 2.32-2.08.52-2.09-1.8-2.09 1.05-4.69-3.13h-3.36L19.7 6.89l.53-2.9-2.61-2.32z" class="land departement58"/>
</svg>
