<svg xmlns="http://www.w3.org/2000/svg" id="svg2" width="100.17" height="100.57" version="1.0"><defs id="defs4"><clipPath id="clipPath3345"><path id="rect2227" d="M222 101h109v80H222z"/></clipPath></defs><style id="style6" type="text/css">.land{fill:#a83c47;stroke:#fff;stroke-width:.6}</style>
<path id="path125" fill="#a83c47" stroke="#fff" stroke-width=".6" d="M36.42.67l-2.84 2.19-12.41-.61-5.7 2.84-2.23 4.78 2.54 2.85-3.81 4.47-2.9 3.46 5.74 5.44 1.58 5.08 4.17 4.42v5.75l-8.29 6.96 2.85 3.2-.61 4.73-4.47 3.2H3.68l.97 3.5 4.11 5.7.97 5.09.97 3.5-1.88.56 4.01.92h3l1.58-2.5h2.03l2.29 2.04-.46 2.54 2.09 1.37h2.94l4.12 2.75 1.83-.92 1.83 1.58 1.83-.46 3.16-2.03 3 .91 2.03-.45v-5.7l1.12.2.71 2.95 3.66 2.3v3.45l5.24.2 6.86 6.4 4.32.21-.25-2.03 1.83-2.75 1.63 2.04-1.38 2.28.66 2.09 2.5-1.63h3l-.26 4.57 2.75 1.83 2.08-.91 5.09-3.46-.31-.66-3-1.83-.2-3.2 3.2-1.58 1.37-1.83-.91-1.57v-3.66l2.49-3.66 3.66-7.78.66-3.4 2.29-.92.25-.66-1.17-.91v-2.75l3.66-2.74.92-4.58-1.58-2.7h-2.54l-.66-.7v-3.87l3.2-2.29-.25-2.28-.46-2.3-1.63 3.52-2.23-.3-1.88-3.52-6.36 3.2-12.71-.65-1.58-3.51-3.5-4.73-.61-5.74-5.09-6.05-3.2 2.23-5.75-4.42.97-8.59-8.24-8.59h-3.81z" class="land departement89"/>
</svg>
