<svg xmlns="http://www.w3.org/2000/svg" id="svg2" width="100.17" height="100.57" version="1.0"><defs id="defs4"><clipPath id="clipPath3345"><path id="rect2227" d="M222 101h109v80H222z"/></clipPath></defs><style id="style6" type="text/css">.land{fill:#a83c47;stroke:#fff;stroke-width:.6}</style>
<path id="path13" fill="#a83c47" stroke="#fff" stroke-width=".6" d="M33.18 16.78l-8.49 4.87-2.18 16.37-8.98-1.27-2.57 6.87 2.14 3.02-9.85 6.04-2.72 6.34 9.6.43 12.77.93 2.42 2.44h-4.56l-3 5.16 13 2.73 10.33-1.8-5.48-5.22 3.64-3.02 5.77 2.44 2.72 5.8 17.31.29 4.52-1.85.92 2.77-4.85 4.24 6.7.3-1.22 3.06-1.85 2.15h14.85l7.28 2.43.72.98.3-6.04 2.18-2.49 2.76-1.65-.29-1.66-2.18-2.2H92.7L91.3 67.6l2.47-2.24v-.83l-2.71-1.36v-2.2l6.01.3 1.4-1.12-5.23-4.97.3-5.8-3.3-2.73 2.7-5.5 6.6-4.44-4.94-3.31-3.54 2.78-8.25 1.9-6.6-.83-11.79-4.92-7.13.24-6.01-2.73-2.23-3.07-4.66-5.2-10.97-4.69z" class="land departement13"/>
</svg>
