<svg xmlns="http://www.w3.org/2000/svg" id="svg2" width="100.17" height="100.57" version="1.0"><defs id="defs4"><clipPath id="clipPath3345"><path id="rect2227" d="M222 101h109v80H222z"/></clipPath></defs><style id="style6" type="text/css">.land{fill:#86aae0;stroke:#fff;stroke-width:.6}</style>
<path id="path155" fill="#86aae0" stroke="#fff" stroke-width=".6" d="M33.04 3.27L14.9 6.73.51 17.86v44.28l-.1 1.31 5.08 1.2 1.62 3.63 3.93-1 2.3-2.94 2.94 1 6.23 4.88 2.3-.95 1.63 3.94 5.86 2.62v3.25l4.3 1.63 4.24-1.63 8.17-1 2 1.69 3.92-1.68 1.94 3.3L52 84.65v4.61l1.62 1.63 1.31-.32.94-2.62 2.99-2 2.93 2.32 6.87 2.3h2.93v-3.3l4.3 2.99.3 2.62-1.98 2.94 3.61-2 2.99-1.3 1.25 2.3v2.31L87 94.51h7.85l.32.31 1.94-3.72-1-1.68-2.98-.63h-3.3l-2-.68 3.3-2 3 .32 2.98-.32.36-5.35 2-1.3.3-3-3.66-2.36-4.3-.31-.99-.69 2.67-1.99.63-2-2.3-1.62-3.36-4.04.37-2 4.3-1.99.68-2.3-2.99-1.37-1.67-4.3-5.98-.68-5.97-1.63-.68-6.66 4.3-2.68-1.63-3.36h-3.35l-2.3 3.68-10.32-.63-8.33-2.05-4.61-4.98v-4l3.61-1.67-2.98-2.31-7.28-.31-4.35-11.02z" class="land departement62"/>
</svg>
