<svg xmlns="http://www.w3.org/2000/svg" id="svg2" width="100.17" height="100.57" version="1.0"><defs id="defs4"><clipPath id="clipPath3345"><path id="rect2227" d="M222 101h109v80H222z"/></clipPath></defs><style id="style6" type="text/css">.land{fill:#a83c47;stroke:#fff;stroke-width:.6}</style>
<path id="path21" fill="#a83c47" stroke="#fff" stroke-width=".6" d="M24.44.72l-.8.3-5.2 2.77-.37 4.84-3.8 3.13-2.09 4.9-1.4 9.03 4.16 6.19.37 5.21 2.39.74 6.99 6.56 6.55 5.89-2.75 1.78-4.17-2.82-5.21 2.82-1.41 1.72h-5.52l.68 2.76-1.72 2.08 1.41 3.5-4.53 2.76 1.71 4.17 4.54.3 4.47 2.09.74 7.3 4.16 4.17h2.4l4.53 1.72.67 3.86-2.75 2.4 2.08 2.08v2.45l4.29 4.42.3-.37.37-8.77 7.66 1.53 2.7-3.5 3.86.8.37-11.9 8.82-.73 7.67-6.93h6.86l.37-4.23 6.92-4.17-3.86-8.84 5.76-4.96L81.5 42l8.46-2.7 2.26-8.4-1.1-5.77-1.96-3.43-1.53-5.03-5.7.43-18.02 6.5h-5.76l-9.93-8.03-9.99-2.7h-5.76V5.94L24.44.97z" class="land departement06"/>
</svg>
