<svg xmlns="http://www.w3.org/2000/svg" id="svg2" width="100.17" height="100.57" version="1.0"><defs id="defs4"><clipPath id="clipPath3345"><path id="rect2227" d="M222 101h109v80H222z"/></clipPath></defs><style id="style6" type="text/css">.land{fill:#86aae0;stroke:#fff;stroke-width:.6}</style>
<path id="path63" fill="#86aae0" stroke="#fff" stroke-width=".6" d="M16.04 16.12l-2.67 8.69 4.19 4.56-1.88 7.23-2.31 2.68 1.58 4.56-7.23 1.52-5.7 1.52 1.51 5.29-2.86.85 1.7 1.58H7.9l2.74-1.34 2.43 1.34-4.5 2.06v3.47l-4.13 3.1v4.44l7.6.36 2.36 2.43v4.8L17.2 78l-2.43 3.77 1.03 2.07 4.8-2.07h9.96l2.8-1.7h3.4l3.76 4.5 8.62-2.44 2.37-3.76-3.4-1.77 2.37-.97.73-3.47 3.76.37 2.07 2.37 1.7-2.74 5.53-2.06 2.49 1.15 1.94-3.22-3.4-3.77h6.5l2.06-3.77 4.5-4.13h-4.5l1.4-5.84 11.66-1.4 4.5-2.73 5.46-2.07 1.76-1.76-2.12-5.47 3.1-6.2-5.47-.37-.67-8.57-8.26 3.77-5.53-1.34-3.4 4.14-5.83-.73-1.03 6.87h-2.8l-1.7-3.77-1.03-1.7-3.1.3-5.83 6.2-7.22-.3-1.04-4.5v-3.4l-.66-.73-2.43 2.73h-3.1l-3.4-3.77h-3.1l-2.07-4.13 2.74-3.1-.3-2-4.86.17.6 1.34-8.38 1.52z" class="land departement82"/>
</svg>
