<svg xmlns="http://www.w3.org/2000/svg" id="svg2" width="100.17" height="100.57" version="1.0"><defs id="defs4"><clipPath id="clipPath3345"><path id="rect2227" d="M222 101h109v80H222z"/></clipPath></defs><style id="style6" type="text/css">.land{fill:#a83c47;stroke:#fff;stroke-width:.6}</style>
<path id="path17" fill="#a83c47" stroke="#fff" stroke-width=".6" d="M78.16 7.08l-5.58.23-2.65 2.7-9.99-.35-8.64 6.3-5.93-4-9.35 3-1.65 3.34-6.64 5-11.99-8-9.7 3.18-.47 2.58.18-.11 6 4-8 5.34-3.29 6.64 4 3.3-.36 6.99 6.35 5.99-1.7 1.35-7.29-.35v2.64l3.3 1.65v1l-3 2.7 1.7 2H6.1l2.65 2.64.35 2-3.35 2-2.64 3-.36 7.28 1 1.36 6.59 2.93 1.82 7.35 4.05.76 3.7-2.58 6.59-4.06L37.9 88l-.35 2.94-3.7 1.82 8.81.41-2.17-2.23-.77-4.76 4.76-3.3 5.53 1.83 2.23.7 1.83 2.24 2.58-1.82.7-4.82 2.95-2.53H68l2.23-3.35 5.11 1.47 5.88-2.53V64.5l-7.7.36 5.88-3.65 2.94-4.05.76-5.88 10.64-1.47 5.94-6.64-4.12-4.23v-2.35l-2-2 2.65-2.3-.65-3.7-4.35-1.64h-2.29l-4-4-.7-6.99-4.3-2-4.34-.29-1.65-4z" class="land departement83"/>
</svg>
