<svg xmlns="http://www.w3.org/2000/svg" id="svg2" width="100.17" height="100.57" version="1.0"><defs id="defs4"><clipPath id="clipPath3345"><path id="rect2227" d="M222 101h109v80H222z"/></clipPath></defs><style id="style6" type="text/css">.land{fill:#86aae0;stroke:#fff;stroke-width:.6}</style>
<path id="path99" fill="#86aae0" stroke="#fff" stroke-width=".6" d="M26.17 15.07l-2.71 2.1-6.81.86-1.53 2.1-4.76-3.58-6.24 4.2L6.5 24l-4.14 5.68-.2-.1-1.7 8.03 3.66.24-.24 3.2 2.72 1.71-2.48 2.49-1.71 1.24.23 2.91 3.72 1.24-3.48 1v3.68l2.24 2.96.48 8.64-1.48 1.48 1.24 4.44 4.67 1.25.47 2.43 2.96.24 2.47-1.72 1.48 1.48L23.08 79l4.67-2.48 1.19-2.43 3.95-.3 4.43 3.97 4.2-1 3.66 3.72h1.71l1.72 2.2h3.48l1.19-1.72 1.47 3.2 3.72 1.48 4.67-2.96v-3.2l3.43-1.24h2.19l2.71 4.97 5.9.47 2.96-3.72 3.2-6.88 4.19-1.48 2.19-3.2 2.24 2.2 4.66-.95 1.48-13.56 1.48-5.45-1.48-2.96-2.48-.95-1.66-9.03-1.91 2.15-5.67-.62-.57 3.3-3.57.28-.29-4.15-3-.9-2.1 2.38v-5.97l-3.57 2.67-5.33-.9-1.81 3.58-11 5.97v3h-2.39v-5.4l-6.24-2.95.58-5.4-5.63-4.15v-5.06l-4.19-.91.29-4.77-3.24-.3.29-3.29h-5.96l-.9 2.97z" class="land departement22"/>
</svg>
