<svg xmlns="http://www.w3.org/2000/svg" id="svg2" width="100.17" height="100.57" version="1.0"><defs id="defs4"><clipPath id="clipPath3345"><path id="rect2227" d="M222 101h109v80H222z"/></clipPath></defs><style id="style6" type="text/css">.land{fill:#a83c47;stroke:#fff;stroke-width:.6}</style>
<path id="path1560" fill="#a83c47" fill-opacity="1" stroke="#fff" stroke-dasharray="none" stroke-dashoffset="0" stroke-linecap="butt" stroke-linejoin="miter" stroke-miterlimit="4" stroke-opacity="1" stroke-width=".6" d="M32.57.7l-2.75 1.96-1.76 2.3-1.73 1.69-.03 2.69-1.7.46-2.18-.76-.46.9 2.22 1.32-1.23 2.9-3.05 1.09-1.96-.76-.76 1.32.63 1.4-2.29 3.09-1.03.1-.2 1.06.76.26 1.53-.26 2.16.03.86 1.13-1.56 2.76s-1.13.43-1.33.43c-.2 0-1.99 1.72-1.99 1.72l.9 1.43 1.56.93 1.1 1.33.52-1.9 2.1-.1.6 1.6 1.98 1.73.53 1.53 1.1.06 1.16-.86 1.69.43.86 1.5 1.13-.27 1.03-1.7.73 1.7-.5 2.75-1.7.87.47 2.09 1.17.46 2.09.04-.2.73-1.76.96-.07 2.62 1.1.93.7 1.17-1.04.5-1.06 4.64 4.85 1.13-.07 1.06-3.52-.06-1.4 2.06-1.38 1.06 2.32 3.25 2.72-.13 2.72 4.65 2.12 1 2 1.99 1.19 3.65 2.19 4.85-.2 3.78-3.92.27-1.46-1.2-5.3-1.99-1.73-1.73.2-2.58-.53-2.4-2.2-1.13-6.36.14.07 1.53 1.46.6 1.59 4.3 1.66 2-.6 1.26.86.33L29.45 79h2.2l.59 1.73-1.33 3.05-1.13 2.46-4.5 1.8-.4 1.05 2.05-.53 1.8 2.26 2.05-.07 1.66-1.99 1.4.27-.6 1.46-.74 1.8.34 2.25-.4 1.8 1.13 2.18 1.65-3.91 2.73 1.4.2 1.39.46 1.52 1.73-1.33 1.19-.13 1.33 2.53h2.38l2.26-2.6-.27-2.78 2.2-1.73.79.46 1 1.93.66 3.45 1.72-.2.47-3.32 2.59 1.4 4.44-5.05h-2.25l-2.92-.53-3.12-1.66-.47-2.4-1.72-1.98.6-1.53 2.45.8-.2-1.73-.66-1.6.46-1.19L55 79l-.33-1.8.92-.92 1.53.53 4.71.93.33-.27-1.85-1.46-1.33-1.53-.13-3.71 3.38-1.8 1.8-1.92.2-1.27.66-2.45-2.92-1.4-3.12-3.25-1.33-3.19-.07-4.05 1.86-2.06 5.18-7.57 2.45-2.12h2.59l-.2-1.66-.8-2.2 1.33-2.19-.13-4.25-5.9-3.12-2.06-2.59-6.37-1.13H52.2l-2.12-2.72-1.4.53.6 2.06-2.32 2.6-2.66-2.4-3.31-1.2-2.2-3.45-.52-1.33 1.66-.6v-1.12l-4.98-2.53-2.79-3.05 1.66-1-5.17-2.32 4.38-4.65zm50.3 30.09l-1.07 1.26-3.45 4.65-3.85 1.53.4.13 1.2 1.92 2.58.6 1.93 3.72v3.26l1.6.26.46-3.32 2.58-2.06.67-4.45-1.06-4.32z" class="land departement976" opacity="1" vector-effect="none"/>
</svg>
