<svg xmlns="http://www.w3.org/2000/svg" id="svg2" width="100.17" height="100.57" version="1.0"><defs id="defs4"><clipPath id="clipPath3345"><path id="rect2227" d="M222 101h109v80H222z"/></clipPath></defs><style id="style6" type="text/css">.land{fill:#86aae0;stroke:#fff;stroke-width:.6}</style>
<path id="path81" fill="#86aae0" stroke="#fff" stroke-width=".6" d="M72.97.71L65.6 4.96l-1.42 6.08-5.49.98-2.94.8.1.14-1.88 7.41-4.47 1.83-1.88 3.12 1.27 4 .91 2.17h-4.72l-.35 5.83-5.08.35-2.54 7.7h-7.62l-8.23 5.89-4.57 7.06.76.94 2.24 11.36 5.38 5.69-.91 6.52 6.75 3.95v8.75l3.6-1.78 7.63 4.84 3.6 1.29.87-6.13 4.52-.84 1.32 4.8 4.52-.45.86-4.8 10.31 5.64 1.68-3.31 4.36-.65.36-6.52-1.02-1.38-1.37-.3v-2.37l1.02-2.37-1.73-2.67 1.02-6.03 4.16-4.74v-6.67l-1.73-7.76 3.1-.64.71-3.36 3.1-5.73 1.73-4.35-2.74-6.72-1.73-5.39-2.44-9.38V5.16L74.9 4.6z" class="land departement07"/>
</svg>
