<svg xmlns="http://www.w3.org/2000/svg" id="svg2" width="100.17" height="100.57" version="1.0"><defs id="defs4"><clipPath id="clipPath3345"><path id="rect2227" d="M222 101h109v80H222z"/></clipPath></defs><style id="style6" type="text/css">.land{fill:#a83c47;stroke:#fff;stroke-width:.6}</style>
<path id="path85" fill="#a83c47" stroke="#fff" stroke-width=".6" d="M42.47.6l-3.74.26-8.12 4.92 1.96 1.78L28.32 11l-.51 2.68-4 .5-2.12-2.37-5.32-.5-.55-2.68-3.19-2.13-4.5 1.62 2.93 4.24h3.7l3.74 2.38 2.93 2.38 5.57-.26 1.06 2.38 3.7.8 1.36 3.7 2.38 1.06-.25 2.93-3.2-.5L31 28.8l2.38 3.43-1.32 5.86-3.19-.25.26 3.7.8 1.31H26.2l-.5-2.12 2.37-3.19-.8-1.82-1.32-1.07-.55-6.36-4.51-.56-3.7-4.5-.55 9.3 6.12 4.5.51 5.06 1.06 5.81.56 5.86 3.18-.3 5.57 4.55 3.74 2.12.26 2.63 2.93.56 8.5 8.49 2 9.17h7.86l1.32-1.32.25 4 6.93.8 1.06 8.5 3.74.25 6.08 6.11 3.19.51 3.74-1.86 2.63 1.86 2.13-4.5 2.12-3.7-5.65-3.81-1.74-2.34-2.34-2.59-5.48.9-1.75-.9-.25-1.44 2.89-1.15v-.55l-2.04-.6-1.45-1.14 3.49-2.89v-2.04l-1.74-1.74 1.14-1.14.6-2.9-2.04-1.99L74 62.42l-3.15-2.88-2.34-1.45 2.04-2.33-1.14-.26-.3-6.07-2.34-.89 3.19-1.7h3.78l1.7-1.44h3.19l.6 1.44 2.88.26 2-.85.6-5.48 2.3-8.37.08-.04-2.09-2-.6-2.88-3.73-1.74-4.93-3.44-6.08.55-3.74-4.88-5.48-.3-4.34-3.18v-1.75L53.22 9.6l-.12-3.9-4-2.98-5.06 2.13z" class="land departement17"/>
</svg>
