<svg xmlns="http://www.w3.org/2000/svg" id="svg2" width="100.17" height="100.57" version="1.0"><defs id="defs4"><clipPath id="clipPath3345"><path id="rect2227" d="M222 101h109v80H222z"/></clipPath></defs><style id="style6" type="text/css">.land{fill:#86aae0;stroke:#fff;stroke-width:.6}</style>
<path id="path149" fill="#86aae0" stroke="#fff" stroke-width=".6" d="M33.56.7l.16.9H32.4l-.69 5.27-.95 3.65.64 2.32-1.96 2.64-2 2.64v2.64l-5.61 2.64-1.64 2.64.63 1.95.32 1.69L18.86 31l-.37 4.28 2.65.31 3.01 4.96h3.65l1.96 2.33h2.32l-.68 2.64-7.62.95.69 2.64 2.64 1.69v3.27l-1 1 2 2.64 2.97 5.28-1.32 5.6-3.33 2.32.37 4.59 3.96 1.32 1.32 2-3.33 2.65-8.67 1.05 4.07 1.58 6.61 9.24 4.29 1.96v4.64l4.97-.69 6.29-6.91 5.29 2.64v3.96h9.57l13.75-15.1-.59-.32.64-6.91 4.97-5.91-3.33-1.32.32-2L72.9 67l-.27-2.37 2.6-2.6-.7-2.58-1.42-3.32 5.92-1.9 2.17-3.07.48-3.8-4.76-4.54-3.34-.9-7.35-2.37V32.9l-.47-4.96-5.92.47-9.26-3.11 1.43-3.27L54.13 17l.75-3.27-2.38-3.12-4.29-2.85-.47-3.53.05-2.01-2.9-.1-1.65 1.63h-4.28L36.1 1.38z" class="land departement39"/>
</svg>
