<svg xmlns="http://www.w3.org/2000/svg" id="svg2" width="100.17" height="100.57" version="1.0"><defs id="defs4"><clipPath id="clipPath3345"><path id="rect2227" d="M222 101h109v80H222z"/></clipPath></defs><style id="style6" type="text/css">.land{fill:#86aae0;stroke:#fff;stroke-width:.6}</style>
<path id="path59" fill="#86aae0" stroke="#fff" stroke-width=".6" d="M60.49 14.08l-9.46.91-2.53 4.46-5.72.61-5.37.97-2.23-3.15-5.06 5.07-3.74-3.2-2.23 4.77.3 4.11-3.49.96-1.57-2.23-1.56-4.76-4.46 3.8-3.14-1.27-3.49.66-3.14 3.8 3.75 6.34-2.53 2.53.96 5.38-3.14 4.1-2.22 6.03 2.53 4.46 8 .56 3.13-1.67h4.86l-.25 5.42 3.7 2.03 3.74.56 1.72 4.61.86.86-.56 2.84-1.16 1.17 3.44 2.28.25 2.58h4.3l1.17-1.16h3.7L41 81.09h4l1.17 2.33h7.74l5.77 3 .5-.71 3.14-1.73 5.72-7.45 10.63.86 4.56 3.15 1.46-2.03 2.28-6.85 2.83-6.58 6.03-2.59 2.88-1.17-.86-2.58-2.88-.3-1.12-2.84h-2.32l-3.7-3.75.25-2.59-4.85-4.87-.86-3.09-3.14 1.37-.86-1.72 2.02-3.15-2.33-2.28v-4l-1.97-2.03-6.33-.3v-3.7l3.44-2.59v-2.89l3.75-1.72-2.02-1.12-2.28 1.12h-4.6l-1.42-1.32-.76.25-1.62 1.58z" class="land departement32"/>
</svg>
