<svg xmlns="http://www.w3.org/2000/svg" id="svg2" width="100.17" height="100.57" version="1.0"><defs id="defs4"><clipPath id="clipPath3345"><path id="rect2227" d="M222 101h109v80H222z"/></clipPath></defs><style id="style6" type="text/css">.land{fill:#86aae0;stroke:#fff;stroke-width:.6}</style>
<path id="path119" fill="#86aae0" stroke="#fff" stroke-width=".6" d="M91.67 18.73l-7.63 1.37-12.45 7.22-14.01 5.56-11.14-6.24-26.77-3.93-6.23-3.24-9.67 2.46.57 3.61-1.88 1.89.26 2.67 6.23 6.24 3.76 2.14 2.72-3.5 2.14 2.72-2.72 3.5 2.46 4.04-1.1 1.36 1.89 3.83-1.05 4.3-2.72 4.34L10 61.74l-2.4-1.88L5.18 62l2.67 2.46L5.7 68.5.58 70.4l6.22 7.86 6.17.52 4.76 3.1 6.59-2 4.86-5.66 6.75 1.89 5.9-4.09 3.56-1.3 3.77 3.76 6.22-1.1 5.39 2.99 6.74-2.15 6.18-4.6 4.07-4.62 2.72-.52.79 3.5 2.14-.52.26-2.46 6.23-1.05 2.14 1.31 6.64-1.46 1.1-3.2-.31-2.93-3.3-1.31-.31-2.3 2.93-1.95.36-3.3-1.98-7.85-3.93-5.56 3.3-1.94v-1.3l-3.3-1z" class="land departement14"/>
</svg>
