<svg xmlns="http://www.w3.org/2000/svg" id="svg2" width="100.17" height="100.57" version="1.0"><defs id="defs4"><clipPath id="clipPath3345"><path id="rect2227" d="M222 101h109v80H222z"/></clipPath></defs><style id="style6" type="text/css">.land{fill:#86aae0;stroke:#fff;stroke-width:.6}</style>
<path id="path195" fill="#86aae0" stroke="#fff" stroke-width=".6" d="M51.25 9.12l-7.51 6.25-7.51 1.19-.57 4.17-1.45 3.86h3.76l2.02-1.78-.87-2.98 11.56-.6 2.88 1.2v6.25l-2.88 6.24-16.76-2.38-2.6-2.38-7.8 5.66-7.51 2.08-10.69-.6-3.18 11.61 2.9 5.06L.4 65.95l4.62 8.93 8.1-4.17 19.35 11.01h33.5l19.94 9.53-.29-2.09 14.16-36.6V35.9l-8.96-2.38-2.31-4.46-3.76-1.79-8.08-9.22-14.16-8.33z" class="land departement94"/>
</svg>
