<svg xmlns="http://www.w3.org/2000/svg" id="svg2" width="100.17" height="100.57" version="1.0"><defs id="defs4"><clipPath id="clipPath3345"><path id="rect2227" d="M222 101h109v80H222z"/></clipPath></defs><style id="style6" type="text/css">.land{fill:#86aae0;stroke:#fff;stroke-width:.6}</style>
<path id="path91" fill="#86aae0" stroke="#fff" stroke-width=".6" d="M56.13.7l-3.2 3.2L44 3.23 42.98 3 36.2 4.25 32.28 7.5v4.29l-7.8.34-4.6 5.37-2.85 2.1 2.44 2.86-.34 9.65-1.76 3.2 2.84 3.2 4.95.4 1.09 4.97.34 3.2-6.38 1.42-3.18 1.09.68 8.9-4.27 2.86-3.59 1.08-1.76 5.03-2.85.34-1.19 5.43 8.3.28 1.83 3.54L12.7 81l3.24 4.28 2.45-.68 2.5-3.6 11.39 1.09 1.82 7.13 7.8 1.09 1.76 2.45-5.35 2.52 2.5 1.77 7.52 1.08.57 1.43 1.99-4.06 4.27 1.6 4.66-5.82 2.68.34 2.33-3.88 6.95.8 2.73-2.74h3.47l2.73-5.03 4.21-.4 2.74-4.62 3.87 1.14h2.73l1.82-3.14-1.82-1.14-.8-4.63h2.73v-1.94l-4.66-3.14-5.01-2.28.74-4.69h-1.54l-1.93 2.75-6.2.34-3.48-.34v-3.54l4.27-3.49-2.73-3.48-6.55 1.94 1.14-14.73-3.07-3.14-3.13-7.77-4.61-1.14-.8-4.28 4.27-8.51-.11-5.25-.97 1.14z" class="land departement87"/>
</svg>
