<svg xmlns="http://www.w3.org/2000/svg" id="svg2" width="100.17" height="100.57" version="1.0"><defs id="defs4"><clipPath id="clipPath3345"><path id="rect2227" d="M222 101h109v80H222z"/></clipPath></defs><style id="style6" type="text/css">.land{fill:#a83c47;stroke:#fff;stroke-width:.6}</style>
<path id="path39" fill="#a83c47" stroke="#fff" stroke-width=".6" d="M17.78 16.38l-2.46 1.26v2.14l-3.72.33-3.38 2.8-6.17.92-1.42 2.03 1.09.11 1.53 4.39H11l1.53 5.54 2.19 2.19.6 6.52 1.86 2.47 3.7.33-2.18 1.86-1.85.6 1.58 1.54-1.86 2.8 3.72 2.19 1.86 2.8v2.9l.81-.27 6.18 15.79 8.84-2.75.66-4.1h3.44l1.37 4.76L49.78 74l7.87 10.08 4.91-7.84 8.85-6.52h8.2l2.72-8.55 5.47-.39.38-6.46h5.08l-.99-2.42-1.36-4.44 2.02-3.45 4.8-2.03 2.03-8.22-4.43-5.16-5.46.33.66-6.52-10.93-4.77-3.71.33-7.54 6.2-6.88-2.25-1.37 1.31-4.31-1.26-3.06-3.12-1.86 3.72-5.3-.27-2.45-2.2-1.86 4.34-3.38-1.54-2.19-4.05h-2.78l-2.46-2.14-3.72 1.53-4.31.33-2.46-1.59-1.53.93z" class="land departement43"/>
</svg>
