<svg xmlns="http://www.w3.org/2000/svg" id="svg2" width="100.17" height="100.57" version="1.0"><defs id="defs4"><clipPath id="clipPath3345"><path id="rect2227" d="M222 101h109v80H222z"/></clipPath></defs><style id="style6" type="text/css">.land{fill:#a83c47;stroke:#fff;stroke-width:.6}</style>
<path id="path9" fill="#a83c47" stroke="#fff" stroke-width=".6" d="M14.9.59v3.83l3.52 2.45 5.9 3.45.39 2.77-3.5 1.06-5.58 1.06v2.39l2.06 2.11.4 6.95 7.62 2.45 2.79.66 2.45 3.84-1.73 2.44-2.78 1-2.12 3.84-2.06 2.45 1 6.22 5.24-.33 1.39 1.06 4.9-2.45 1.4 1.39-2.46 5.23 2.45 2.44-4.17 3.12-2.79 6.22 7.63 1.78 10.81 1-4.51 5.23s-2.12-.82-3.07-.4l-.1.06-.06.06-.06.05-.05.06-.06.06v.05l-.05.11v.06c0 .02-.05.08-.06.1v.12c0 1.74-2.4 5.95-2.4 5.95l3.46 3.78 6.3 3.83 11.8 3.12 3.46 1.39 3.17 1.39-2.11 3.83 5.57-.33 1.05 2.45h5.57l1.4-6.62-3.51-.72 4.9-5.17-1.73-1.78.34-3.11 6.3-3.45.33-3.84-4.18-.33-2.79 2.39V73.9l5.57-.33 1.73-4.17 1.4-12.18-1.07-5.22-.1-5-6.08 4-7.24.28-.61-5L71.1 45l-2.22-1.55-.62-8.5-.94-1.56h-3.8l-1.88-1.56v-6l-2.51-1.56-1.9-.95-3.78-4.72.28-2.84h-4.68l-1.62-4.72h-6.63L37.36 6.3l.95-1.55-2.18-1.28-5.07.94-1.89-1.22h-6.9l-.67-1.9L17.7.6z" class="land departement2a"/>
</svg>
