<svg xmlns="http://www.w3.org/2000/svg" id="svg2" width="100.17" height="100.57" version="1.0"><defs id="defs4"><clipPath id="clipPath3345"><path id="rect2227" d="M222 101h109v80H222z"/></clipPath></defs><style id="style6" type="text/css">.land{fill:#86aae0;stroke:#fff;stroke-width:.6}</style>
<path id="path175" fill="#86aae0" stroke="#fff" stroke-width=".6" d="M50.65.6l-5.86.3-3.68 8.22-4.67 9.26 1.18 5.81-3.86 8.9-6.67 5.74-.37 15.07-4.86 4.14.18.12 1.56 3.1 6.24.36 7.04 5.44L38 69.7l-.37 4.64-1.94 3.52.75 4.63 5.49-.8 1.18 4.26 1.93 8.22 4.61-.75-.8 4.2 2.74 2.35 14.4-.37 7.4-5.8.38-8.53 3.93-5-5.11-5.8-2.68-6.19 3.11-4.2v-9.7l1.94-4.63v-7.72l3.49-5-3.87-5.38-.37-11.11-5.99-2.6-3.42-9.82-7.67.37-3.05-3.77z" class="land departement68"/>
</svg>
