<svg xmlns="http://www.w3.org/2000/svg" id="svg2" width="100.17" height="100.57" version="1.0"><defs id="defs4"><clipPath id="clipPath3345"><path id="rect2227" d="M222 101h109v80H222z"/></clipPath></defs><style id="style6" type="text/css">.land{fill:#a83c47;stroke:#fff;stroke-width:.6}</style>
<path id="path95" fill="#a83c47" stroke="#fff" stroke-width=".6" d="M69.73 3.84l-2.97 2.25.38 4.9-1.87 1.49-5.29-3.03-5.23 1.87-6 .39-4.53-5.5-1.43.27-6 2.97-4.52 1.16v2.58l-2.6 3.03.72 1.87-3.36 1.87-2.97 10.85-.77 7.1-2.6 1.1-3.74-.33-.77-1.87h-4.13l-2.2 1.87h-4.9L.8 40.88l3.03 1.16.38 7.87 1.5.33-2.65 3.03 3.03 1.87 4.07 3.74 2.26 3.74 2.65 2.6-.77 3.73-1.5 1.49 2.27 2.26v2.64l-4.52 3.74 1.87 1.49 2.65.77v.71l-3.75 1.49.33 1.87 2.26 1.16 7.1-1.16 3.04 3.36 2.26 3.03 7.33 4.95L34.69 95l6.89.71 3.41-3.13 6.23-6.17.33-12.05 16.2-11.01.33-8.26 4.85-.66 3.08-5.5 1.93.05 1.16-5.23 2.75-.33 1.71-4.84 3.47-1.05 4.13-2.75-.66-8.59 3.09-1.04 6.17-1.38-.33-3.08-1.05-4.79-4.8-.38-2.75-3.09 1.71-3.08.11-2.8-3.08-1.55h-5.95l-2.65 2.98-6.39 2.64-2.2-2.26z" class="land departement16"/>
</svg>
