<svg xmlns="http://www.w3.org/2000/svg" id="svg2" width="100.17" height="100.57" version="1.0"><defs id="defs4"><clipPath id="clipPath3345"><path id="rect2227" d="M222 101h109v80H222z"/></clipPath></defs><style id="style6" type="text/css">.land{fill:#a83c47;stroke:#fff;stroke-width:.6}</style>
<path id="path51" fill="#a83c47" stroke="#fff" stroke-width=".6" d="M44.42.6l-2.77 4.93-4.35.6-.3 7.41-14.55 9.89-.3 10.82-5.58 5.54-3.07 2.81-6.19-.64-3.41 5.88-.9 1.93 1.64 1.93h3.07l1.68 2.52-1.68 4.5-.84 4.99-2.82 1.68v1.68l1.14 1.68v3.06l-2.23 2.82 2.77 1.39.84 2.27 9.55-.3 3.9-4.74 3.92 2.52-3.07 2.22.25 6.13 4.5 3.12.54 5.83 4.75 1.68 2.82-2.52h6.14l3.36-2.77 1.98.3.55 2.22h6.18l1.39-1.68 2.22.3 2.53 2.76v1.98l-2.23 1.39.84 1.97 3.07.25 3.9-3.6h3.37l2.23 2.51 4.85 2.03.3-.8 2.81-2.76.3-4.65 6.78-.59 4.35-6.18-1.88-.64-.3-3.36 5.25-.64.35-3.07 2.47-1.58 2.77-4.94-2.77-3.07v-3.4l2.13-1.84-2.77-4.35.3-6.77-6.79.3-2.77-1.88 2.48-3.06-3.42-2.77 2.48-3.11-2.48-1.24v-4.3l6.19-5.59-3.42-2.76-1.83-4.65-6.53-.94-2.17-1.53 4.65-2.18-1.54-2.12-6.78-.94L70.7 8.3l-9.9-.94-2.17 3.12-2.13.59-2.82-3.7 1.29-3.42L53.38.9z" class="land departement24"/>
</svg>
