<svg xmlns="http://www.w3.org/2000/svg" id="svg2" width="100.17" height="100.57" version="1.0"><defs id="defs4"><clipPath id="clipPath3345"><path id="rect2227" d="M222 101h109v80H222z"/></clipPath></defs><style id="style6" type="text/css">.land{fill:#a83c47;stroke:#fff;stroke-width:.6}</style>
<path id="path159" fill="#a83c47" stroke="#fff" stroke-width=".6" d="M55.75.6l-6.46 3.11-3.23-1.98h-2.84l-6.46 3.11-4.84-1.98-4.85 1.98-1.61.27-1.23-1.71h-4.46l-3.23 1.44h-.13l.97 3.97-5.3 4.02v3.7L8.42 19.4l.84 3.43 2 5.72 2.45 9.75-.77 8.57-1.68 2.57 4.9 2.57-3.67 1.17-2.46 6.85-6.97 1.13-2.46 2.89 4.9.59.85 3.96-3.68.59.39 4.28 1.22-.27 2.07-2.3 4.9 2.3 2.91 2.3-.84 3.84L17 81.2l1.22 6.22 10.85 7.3 3.62.86 2.07 3.39 6.78.99.84-.72 2.07-3.07 6.07-1.98 3.23-5.91 3.61-1.72-2.06-1.98h-5.23l-.78-1.94 3.62-1.13 1.61-1.71-3.61-1.67 1.16-2.57 9.3-.54-1.62-2.53-5.62-2.57v-7.58l7.63-3.96h8.52l-.84-2.8 4.85-1.44 6.84 3.1 2.84-.53-.38-9.6 1.22-3.4 1.62-3.92-5.3-1.98 1.23-2.25 7.69-1.13v-3.66l6.07-2.25 1.61-3.38-2-2.26.39-4.24 3.61-2.25-3.61-4.78 1.1-5h-8.2l-2.2 1.03-7.69-1.4-1.61-3.65h-2.4l-4.45 2.8-.78-2.53-8.9-.59-2.46-1.4z" class="land departement02"/>
</svg>
