<svg xmlns="http://www.w3.org/2000/svg" id="svg2" width="100.17" height="100.57" version="1.0"><defs id="defs4"><clipPath id="clipPath3345"><path id="rect2227" d="M222 101h109v80H222z"/></clipPath></defs><style id="style6" type="text/css">.land{fill:#86aae0;stroke:#fff;stroke-width:.6}</style>
<path id="path1479" fill="#86aae0" fill-opacity="1" stroke="#fff" stroke-dasharray="none" stroke-dashoffset="0" stroke-linecap="butt" stroke-linejoin="miter" stroke-miterlimit="4" stroke-opacity="1" stroke-width=".6" d="M26.26.56l9.3 4.5 9.08 5.83 1.74-.63 4.97 4.58 1.9.55.47 2.6 7.02 8.05 1.19 3.7 1.65.09.95-3.63 4.66-.8 3.63-1.57 3.87-2.45 2.92 1.74-.08 2.68-.95.4-1.26-2.21-2.69 1.42 2.3.95-2.53 1.89 1.9 1.66-1.35.78h-3.4l-.47-2.44-2.44-.63-1.82.08-1.66 1.73.16 3.55 1.97 1.34 1.82-1.02-1.42 2.29 1.66.15 1.18-1.42h1.03l-.48 2.6 1.03 1.11 1.81-.7 4.1 2.12-.94.4-3.63-1.1-2.29 1.33-3.7 1.42-1.5 2.45 2.75 2.76 2.6-1.97 3.64.24 2.05-.56.71.4-.31 1.9-2.85 1.41h-.94l2.13 1.9L74.7 52l-.55 1.89h5.68l-1.18 1.74 1.73 4.41 3.08-.15 1.1 3-.62 1.57 1.73 2.13 2.37-1.57-.32 1.5-1.26 2.05 2.13 3.23.24 2.13.4 1.66-.09 3.86 1.74 1.03v6.15l-2.76 6.47-2.6 2.76-3.4 4.1-3.63-.47-3.08-4.8 2.45-4.35 3.31-3.79-2.44-1.97-3.08 2.76-.79 1.9-2.92-2.37-.24-1.34-5.84.4-6.55-1.03-1.1-1.82-1.74 1.42-.23 1.27-4.98-2.45-1.18-1.1-4.42 2.05-.87 3.47-2.92.08-1.97-1.5.87-1.5h-1.66l-1.34-1.26 1.26-2.3-.87-2.04-1.26-1.98-2.76-.15 1.97-4.58 3.87-2.84 1.81-.32 2.13-2.6h3.08l-.47 3.31 3.08.48 3.23-.08 2.29-1.74-.32-1.65-3-.87-.78-3.47-1.74-1.82 1.1-1.73-.47-2.76-3.31.55.08 2.76-2.3-.16-3.3-1.73-4.98.55-2.68-4.42-4.42-2.13-1.58-.16-4.58-6-4.81-8.91v-2.68l1.42-5.13L16.94 25l-3-3.47-2.13-.4-2.52-5.51.55-5.53 4.18-6.07 6.95-2.45h6.31z" class="land departement972" opacity="1" vector-effect="none"/>
</svg>
