<svg xmlns="http://www.w3.org/2000/svg" id="svg2" width="100.17" height="100.57" version="1.0"><defs id="defs4"><clipPath id="clipPath3345"><path id="rect2227" d="M222 101h109v80H222z"/></clipPath></defs><style id="style6" type="text/css">.land{fill:#86aae0;stroke:#fff;stroke-width:.6}</style>
<path id="path131" fill="#86aae0" stroke="#fff" stroke-width=".6" d="M15.1 8.51l-2.98.72-3.98 4.25-7.72 1 1.6 12.8 3.48 1.05v1.38l-3.48 2.04 4.14 5.85 2.1 8.28-.4 3.48-3.08 2.04.33 2.43 3.48 1.38.33 3.09-2.76 7.94 2.76 3.48 9.65.33 2.04 4.8 3.48 3.48 4.8 1.71 1.43 5.2-2.43 3.41 5.03 3.37 4.96-4.75h4.8l12.47-6.51 4.08 1.71h8.66l2.04-2.43v-5.19l6.9-3.42v-5.52l1.88-1.54-.17-1.55 1.76-1.76-3.08-.67v-2.76l-1.77-2.76 1.38-1.7 9.65-2.77 2.43-4.14 2.1-7.61 2.53-3.15.56-4.08 3.09 1.7 2.42-.65-1.76-2.76-1-7.95L93.78 19l.05-.22-5.46-.6-9.16-4.7-7.94.22-4.2 3.7-2.26 6.46-8.88.99-8.44 2.48 2.98 1.99-1.22 2.98h-3.97l-2.2-4.75h-2.49l-3.97-2.98 5.46-1.7-8.44-5.97-8.38.5-1.99-3.42-4.74.5z" class="land departement27"/>
</svg>
