<svg xmlns="http://www.w3.org/2000/svg" id="svg2" width="100.17" height="100.57" version="1.0"><defs id="defs4"><clipPath id="clipPath3345"><path id="rect2227" d="M222 101h109v80H222z"/></clipPath></defs><style id="style6" type="text/css">.land{fill:#86aae0;stroke:#fff;stroke-width:.6}</style>
<path id="path113" fill="#86aae0" stroke="#fff" stroke-width=".6" d="M7.13 10.91l-.73 1.47-.47-.1.36 1.2v3.76l3.5 2.15 2.15 5.7 3.24 4.04-4.29 3.82.26 4.82 1.62 1.36 5.9-.79 4.87 4.56 1.1 6.75-3.24 2.2-10.5-.26-6.75 1.3-3.76 1.95v3.19l3.5 4.35h3.5l.26 4.6 1.36 1.36-1.62 3.77-2.72.79v2.46l-1.36 1.36 1.62.79.84-.27h2.4l2.72 3.51-.1 3.4.62.11 2.72 1.62h8.36l4.44 3.77 6.22-2.67 10.14 2.3 4.55-2.98v-4.55l8.83-.68 8.15-1.63 8.84-.31.99 2.3 2.3 1.94 2.25-3.93 6.21-6.54h2.51l3.71-13.4 5.23-6.23-.37-7.18 3.3-4.29v-1.94l-1.62-1.99 1.04-2.14L94.77 34l-13.75-8.38-12.7-3.77-4.86-.26v-3.25l-2.97-2.46h-3.2L51.35 14l-3.76 3.77-8.63.31-3.81-2.2-9.67-2.93-2.2 2.67-5.38-3.5h-4.86z" class="land departement49"/>
</svg>
