<svg xmlns="http://www.w3.org/2000/svg" id="svg2" width="100.17" height="100.57" version="1.0"><defs id="defs4"><clipPath id="clipPath3345"><path id="rect2227" d="M222 101h109v80H222z"/></clipPath></defs><style id="style6" type="text/css">.land{fill:#86aae0;stroke:#fff;stroke-width:.6}</style>
<path id="path109" fill="#86aae0" stroke="#fff" stroke-width=".6" d="M33.2.6l-3.13 3.54L31.9 14l2.71 1.04 1.62 3.24-1.62 5.95L33 39.04l-5.12 1.05-2.45-2.4-2.4 3.5-4.6 1.61-3.5 7.51-2.13 2.72.78 3.5-1.35 5.37-2.4 2.19v2.14l1.61.52h4.6l4.01 2.45 2.72 4.85-2.46 3.24.84 3.18h3.5l.26 3.24-2.72 3.23-2.92 1.36 1.88 1.1.52 1.61-2.97 2.4 3.44 6.47 6.58-3.5 20.2-.99 1.3-3.6 3.28-3.23 7.15-1 .32-3.6 4.9.68 2.92 3.92 6.58 1.62 1.25-2.61 1.67-5.9 4.23-10.43 2.3-1.3 5.53.67v-8.82l-2.3-2.3v-9.44l-1-3.23V41.6l3.3-3.29V31.8l-1.62-1.3.31-9.13-2.6-1.3h-3.92l-3.29-2.62-3.55 4.23-2.92.36-2.6 3.55-2.62-.62-5.58-4.9-1.93-6.22-1-4.12H43.02l-5.9-3.6L41.04.9z" class="land departement35"/>
</svg>
