<svg xmlns="http://www.w3.org/2000/svg" id="svg2" width="100.17" height="100.57" version="1.0"><defs id="defs4"><clipPath id="clipPath3345"><path id="rect2227" d="M222 101h109v80H222z"/></clipPath></defs><style id="style6" type="text/css">.land{fill:#a83c47;stroke:#fff;stroke-width:.6}</style>
<path id="path163" fill="#a83c47" stroke="#fff" stroke-width=".6" d="M54.47.59l-3.94 5.5-3.51 3.37v7.74l-4.7 2.96-8.59 2.6-4.7 1.83-5.51-4.08h-7.46l-1.07 6.57 3.51 6.26L15 36.3l-.38 5.56 1.94 2.96L15 49.25 9.1 52.21V57l-7.45 1.48-1.2 2.95 5.14 2.6-1.56 5.15-1.2 4.43.26 9.23 9.52.23 8.34 4.91 1.56 2.25 4.4 1.12 6.38 4.5 5.14.35 1.2-1.12h5.2l2.37 4.9h2.76l1.63-2.24 9.53.35 1.56 1.9h1.2l4-3.79 3.58 3.02.56-.06-.25-1.54 4.7-2.19 2.32-2.24-1.5-3.67-.45-2.6 4.33-3.31 1.56-7.4-4.7-5.55 1.57-2.6 3.95-6.98 1.13 1.48h5.89l2.75 2.54 3.51-2.19 2.76-4.26-2.82-.41-1.57-7.4-3.13-2.24-10.96-1.12-1.95-4.8-3.57-2.18-12.53-1.48-.75-8.51 1.56-1.48v-3.31l-6.26-3.73 1.19-4.08 1.56-3.66L57.61 12l4.32-3.67V1.65L60.36.59z" class="land departement08"/>
</svg>
