<svg xmlns="http://www.w3.org/2000/svg" id="svg2" width="100.17" height="100.57" version="1.0"><defs id="defs4"><clipPath id="clipPath3345"><path id="rect2227" d="M222 101h109v80H222z"/></clipPath></defs><style id="style6" type="text/css">.land{fill:#a83c47;stroke:#fff;stroke-width:.6}</style>
<path id="path79" fill="#a83c47" stroke="#fff" stroke-width=".6" d="M11.78 11.08l-.64 9.1-2.04 1.68V32l-4.07.7-.65 5.76-3.72 2.69-.05-.05.4 1.74 3.72 4.02v2.74l3.68 6.75 7.79 1.7 2.68 2.03 1.04-1.04-1.39-2.69 2.04-4.42 2.38-.3L26.97 57l1.69-2.34h2.38l6.4 6.42.35 4.37-3.02 1.69-1.4 6.41 2.74 2.73v2.69l-.7 2.73 2.04-2.04 3.37 2.04 1.79 2.44 5.6-.6 1.85 1.84.94 4.37 5.56-.65.64-4.67 2.78-1.24 5.96.3-.1-.2 9.29-3.73 3.42 2.19h3.43l.3-3.73 4.01-2.18L87.83 74l8.1-3.13.94-5.27-1.59-2.49 4.37-7.45-4.02-1.54-1.24-4.38-8.4-4.97s.5-9.52-.3-11.23a2.67 2.67 0 00-.09-.15c-.02 0-.04-.04-.05-.05h-.05v-.05h-.05-.05-.05c-1.24.32-5.85.65-5.85.65l-4.67-5.32.15-5.12-2.09-.24-2.38 2.68-3.03 2.04.7-1.7-3.08-5.06h-5.06L57 17.49l1.69-2.04-.65-2.03-2.38-.65-3.03 2.04-2.38 7.05-3.03 2.39-1.34 5.42-1.34 2.68-5.41 1.04-1.69-1.69-4.72-5.06H30l-.99 1.98-5.41-.64-2.33-4.43-6.1-.99v-8.8z" class="land departement73"/>
</svg>
