<svg xmlns="http://www.w3.org/2000/svg" id="svg2" width="100.17" height="100.57" version="1.0"><defs id="defs4"><clipPath id="clipPath3345"><path id="rect2227" d="M222 101h109v80H222z"/></clipPath></defs><style id="style6" type="text/css">.land{fill:#86aae0;stroke:#fff;stroke-width:.6}</style>
<path id="path57" fill="#86aae0" stroke="#fff" stroke-width=".6" d="M38.48 12.7l-2.19 1.54-.93 1.86 4.33 3.11 1.26 2.2-.93 1.8-7.45.65-2.14 3.06.28.93 2.79.93 1.59 2.19-1.86 3.06-2.2-.27-3.39-3.12-4.05-1.2-4 .27-7.12 4.32.28 5.9 1.86 1.26-1.2 4.6-8.1 2.18-3.07 3.72v6.18l1.26 1.86L.6 62.4l1.85 1.04 10.57 2.03h4.5l5.8 7.54 14.73-.71 5.8 9.24L49 79.46l15.05 2.08 1.1 6.29 10.62-2.46 3.89-3.4 5.8-1.47 1.43-2.9 12.59-.93-7.72-9.18-6.3 3.39-11.11-9.19 2.4-3.39h8.71l-.98-8.2v-6.28l-1.43-11.65-16.97-8.2.98-2.9-3.23-3.6-2.73 1.14-3.73.6-6.84-3.11-1.86-.6 2.79 3.39-1.2 2.78-5.92-.6-.27-3.11-3.45-4.65z" class="land departement09"/>
</svg>
