<svg xmlns="http://www.w3.org/2000/svg" id="svg2" width="100.17" height="100.57" version="1.0"><defs id="defs4"><clipPath id="clipPath3345"><path id="rect2227" d="M222 101h109v80H222z"/></clipPath></defs><style id="style6" type="text/css">.land{fill:#86aae0;stroke:#fff;stroke-width:.6}</style>
<path id="path139" fill="#86aae0" stroke="#fff" stroke-width=".6" d="M17.35 8.74l-2.03 2.62-2.43 4.22 3 2.77-.28 6.37-1.21 4.22h-3.06v5.78l-4.22 5.49-4.56 1.8-2.13 2.72.92 2.28 14.7.49 1.26 1.11-.2 1.07-2.18 1.12.44 3 1.94 1.32 3.05-2.18h.87l3.5 2.62 3.05.24.44 7.82 2.37 6.31v10.93l1.75 2.63h5.87l4.55 6.75 1.7 1.45.05-.14 3.05-.44 2.62-2.18 5.24-.25.44.88 1.06-2.38 4.56-1.56 3.93.25 1.94-.68 2.62 2.42 4.6 2.63 3.88-.25-.19-3.93 1.75-1.94 1.74-.2 1.5 1.7 6.12-.63 3.88-2.18-.44-1.51-1.07-1.31.2-2.87 2.86-5.2 3.68-1.55v-3.25l.88-1.95-2.38-.87-1.55-3.3-3.93-1.07-.2-1.31 3.93-3.26 4.42-2.18-2.48-3.7-11.1-.43-1.5 1.75H81.5l-1.07-1.12-4.8-.63-1.3 2.82-3.06.87-2.82-3.25-.67-3.74-2.57-2.19-3.93-.44-2.86-1.94v-1.94l-1.7-4.18 3.44-3.45-.43-1.75-1.5-1.74h-1.75v-1.56l1.74-3.01.2-1.75h-2.57l-3.93-1.12-3.69 3.5-4.17.44-6.74-1.75-1.94-4.37-2.62-1.5-1.5-3.5h-4.36l-1.75-1.32 2.62-1.5.2-1.31h-2.82l-4.8.87z" class="land departement41"/>
</svg>
