<svg xmlns="http://www.w3.org/2000/svg" id="svg2" width="100.17" height="100.57" version="1.0"><defs id="defs4"><clipPath id="clipPath3345"><path id="rect2227" d="M222 101h109v80H222z"/></clipPath></defs><style id="style6" type="text/css">.land{fill:#a83c47;stroke:#fff;stroke-width:.6}</style>
<path id="path181" fill="#a83c47" stroke="#fff" stroke-width=".6" d="M93.9 21.44l-2.9.64-4.44 1.68-2.22 2.77-2.5 1.68-4.76 2.23-1.36-.28-3.36-.86-3.3-.27-1.14-3.64-2.22.87-.27 3.9-1.68-1.68-3.04 2.23-3.04 1.1-3.63-.28-2.5.86-2.76-1.68-1.68 1.36h-4.17l-1.95 3.64-9.16.54-1.95-2.5-3.04-.54.27-1.4 1.95-1.37-1.68-.6-.27-4.45-4.17-.27-2.45.77-1.73 2.32-4.44 1.36v-1.63h-1.36v1.9l-5.58 1.14v2.5l-4.99.64-1.9 1.9 1.95 2.82 4.53.32 4 5.36h3.4l.81 3.73 3.72.54.82 2.55-2.54 1.72-1.68 7.68 7.94 3.95v5.96l3.08-1.14 2.59 2.04 1.95-1.18-1.1-1.68 1.41-.86 1.95 2.27 2.86-2 .86-2.81 5.35-.87 1.46 1.14-.28 3.13 3.68 2.82 2.27-.27 2.54-2h5.94l4.26 4.81h1.4l2.27-1.4.32-1.69 2.27-1.13 2.54 1.68 2.54 2.86 8.93 4.73 3.54-3.05.27-11.08 4.86-4.23 2.8-6.54-.85-4.27 3.4-6.82 3.13-7.08-5.4-1.41-1.13-7.68 1.13-5.13z" class="land departement88"/>
</svg>
