<svg xmlns="http://www.w3.org/2000/svg" id="svg2" width="100.17" height="100.57" version="1.0"><defs id="defs4"><clipPath id="clipPath3345"><path id="rect2227" d="M222 101h109v80H222z"/></clipPath></defs><style id="style6" type="text/css">.land{fill:#86aae0;stroke:#fff;stroke-width:.6}</style>
<path id="path71" fill="#86aae0" stroke="#fff" stroke-width=".6" d="M34.56.32l-1.93 2.25-1.93 5.74-3.85 1.92-4.14-3.85h-2.86l-.33 4.18 4.18 3.52-6.4 8.27L9 24.28l-6.4 2.25 4.13 4.14 1 1.92-6.4 3.2-.66 9.25-.19.1 1.79 3.71 5.12 1.6 3.53-1.27 4.13-2.87 5.45 4.47h4.47l3.2 4.46-1.32 3.2.66 4.5-1.6 4.47.66 1.6 2.2-.66 5.13 1.6 6.72 1.92 2.87-1.93 1.26-2.2h1l.27 23.91 1.6 1.6h4.18l3.81 2.25 2.87 2.26 2.91.28 1.88 1.6 5.31.6.38-.89-2.35-1.17v-3.52h7.33l2.35-2.35-1.46-2.63 3.8-2.96 2.69 1.17 3.8-3.24 6.72 1.17 2.35-2.63 5.6.29v-6.44l-2.35-1.18-1.18-3.8-6.16-.61-.89-1.46 1.18-6.15 2.06-1.79-1.69-2.3-3.2-1.93-1.92 1.93.66-2.58v-2.54l-2.59-2.59 1.32-6.06 2.87-1.6-.33-4.13-6.07-6.06h-2.25l-1.6 2.21-3.8-5.07-2.26.28-1.93 4.18 1.32 2.54-.99.98-2.54-1.92-7.38-1.6-3.47-6.39v-2.58L53.07 23l-.37-1.64L40.95 7.04 39.63 2.9 37.1.65z" class="land departement38"/>
</svg>
