<svg xmlns="http://www.w3.org/2000/svg" id="svg2" width="100.17" height="100.57" version="1.0"><defs id="defs4"><clipPath id="clipPath3345"><path id="rect2227" d="M222 101h109v80H222z"/></clipPath></defs><style id="style6" type="text/css">.land{fill:#a83c47;stroke:#fff;stroke-width:.6}</style>
<path id="path111" fill="#a83c47" stroke="#fff" stroke-width=".6" d="M69.15 7.05l-.3 3.38-6.7.93-3.1 3.03-1.22 3.38-18.95.93-7.98 4.26-.3 8.57-8.57 3.38-5.83 3.04h-4.9l-1.8-2.1-2.75 2.74-1.32.24 1.56 1.08-5.82 5.2 1.22 1.22 1.22 2.44-3.08 4.31L3.9 54.9l5.83 1.22.58-2.45 3.38 4.31h5.54l3.97-4.3h5.19l-5.49 2.74.3 3.08 1.22 2.74-3.38 3.38h-3.67l.63 4.6L24.72 69l7.99 7.35-.4.49 5.79 3.77 1.27 3.04 5.29 2.3 4.06.49 1.77 4.8 6.31 1.52 4.27.78 2.3-2.55-2.3-3.28-.98-7.1 2-2.25h2.8l1.27 2.79-.78 5.04 1.76 1.28 4.55-1.52 1.52-5.05-2-2.05h5.04L78 75.57l1.77.24 4.06 3.82 2.94.4.1-3.2-2.55-3.27h-2.25l-.79.24-1.51-.73 1.27-1.28v-2.3l2.55-.73 1.51-3.53-1.27-1.27-.24-4.31H80.3l-3.28-4.07V52.6l3.53-1.82 6.32-1.22 9.84.24 3.04-2.05-1.03-6.32-4.55-4.26-5.54.73-1.52-1.27-.24-4.5 4.01-3.58-3.03-3.77-2.01-5.34-3.28-2.01V13.9l-.35-1.12-5.73-1.42-2.74-3.68z" class="land departement44"/>
</svg>
