<svg xmlns="http://www.w3.org/2000/svg" id="svg2" width="100.17" height="100.57" version="1.0"><defs id="defs4"><clipPath id="clipPath3345"><path id="rect2227" d="M222 101h109v80H222z"/></clipPath></defs><style id="style6" type="text/css">.land{fill:#86aae0;stroke:#fff;stroke-width:.6}</style>
<path id="path49" fill="#86aae0" stroke="#fff" stroke-width=".6" d="M20.95.6l-3.9 5.86-1.22 20.5-3.17 20.74-2.23 16.08-.23 4.18 1.72-5.62 3.4-4.41 4.89 4.4.5 1.45 1.45 1.96-6.1.27-.97-1.48-2.43.97-.5 3.67-2.7 3.67v5.59l-.04.23 2-.08 7.73-3.98 4.19 1.52-.2 2.9-1.8 2.18 2 1.33 4.22-1.76 2.85 2 1.8-.24 2.62-2.19 4.46-.66L40.8 81l1.33 1.09v1.33l-1.1 1.32 4 1.1 2.42 1.56.23 2 2.2.19 3.08 3.32.9 5.54 4.42 1.52 4.22-.2v-1.32l-.47-4.41 1.33.43 2.5 3.04 3.91-.62 1.8-1.76-.24-2.42-1.56-1.33.47-2.46h2.42l2.43-1.52-1.1-2.23-.66-3.32 1.76-3.08 3.75-5.74 2.23-2.66 2-.66.42-2.19-2.65-.23-1.1-2.42.86-2.42 3.13-.67 2.19-.66 2.58-.35-.16-.12-.2-4.84 2.43-1.76-3.09-2-3.09 3.76-7.54.23-.67-1.8L74 53.17l1.76-2.22v-2.42l-.9-1.33v-1.33l2.23-1.33.67-3.94 1.33-3.56-1.33-1.99h-2.43l-1.29-1.52-1.25 2.62-2.42-1.72-3.44 1.72-2.94-.47-5.59-5.63-3.44-.23-.97-7.8-6.38-.75-.23-3.67-1.21 1.2h-7.24l.36 1.57L41 27.43l.47 7.07-1.22 1.95-1.2-5.86-3.45-13.4L23.14 5.96l.27-5.11z" class="land departement33"/>
</svg>
