<svg xmlns="http://www.w3.org/2000/svg" id="svg2" width="100.17" height="100.57" version="1.0"><defs id="defs4"><clipPath id="clipPath3345"><path id="rect2227" d="M222 101h109v80H222z"/></clipPath></defs><style id="style6" type="text/css">.land{fill:#86aae0;stroke:#fff;stroke-width:.6}</style>
<path id="path183" fill="#86aae0" stroke="#fff" stroke-width=".6" d="M47.6.62l-6.24 2.83-6.78 2.7-1.33 7.68L23 18.7l-1.33 7.56 4.78 8.35-6.9 9.6H9.46l4 6.2-4.78 5.54L7 67.12l3.34.67 1.33 9.15 1.45 2.14 1.44 18.97 22.24-2.03 9.01-8.47 7.68 6.32 18.68 1.36 2.67 4.06V85.06l15.57-10.38-4.67-6.21 2-18.74 2.67-4.06-3.34-18.74 6.12-4.86-1.22-8.8-7.68-3.62H71.4l-7.45-4.17L58.5 8.3z" class="land departement91"/>
</svg>
