<svg xmlns="http://www.w3.org/2000/svg" id="svg2" width="100.17" height="100.57" version="1.0"><defs id="defs4"><clipPath id="clipPath3345"><path id="rect2227" d="M222 101h109v80H222z"/></clipPath></defs><style id="style6" type="text/css">.land{fill:#a83c47;stroke:#fff;stroke-width:.6}</style>
<path id="path1432" fill="#a83c47" fill-opacity="1" stroke="#fff" stroke-dasharray="none" stroke-dashoffset="0" stroke-linecap="butt" stroke-linejoin="miter" stroke-miterlimit="4" stroke-opacity="1" stroke-width=".6" d="M41.04 8.78l-.74 1.82-2.74 2.24-2.99 2.49-1.74 2.57.58 1.16 1.33 5.06 2.07.5 1.58.99-.25 3.9-2.57.9-1.74.5-.25 3.16-1.5 2.4-.9 1.24-2.66.17-.42 1.66h-1.9l-.25-1.16-.92 1.74h-1.32l1.16-1.25-2.58.25 1.66-1.65 2.08-2.24-3.9.25-1.83-1.5-7.63-2.9-.91-1.4-3.4-1.75-3.98 2.49-3.16 4.64-.83 4.56 1 3.48 1.82 2.08.42 1.32-.75 2.99.33 2.32h1.5l-.83 5.06 1.16 1.07-.41 3.82.83 2.07-.83 2.82 2.82 3.81v2.24l2.73 2.9 2.33 2.32.25 3.24 2.73-.17 2.16-1.66 5.23-2.15 3.65-3.32 4.06-4.3.08-3.33-1.16-6.88 1.08-1.57-1-.58-2.65-6.63.83-6.39 2.99.17.58 1.82 1.08-.41-.17-3.73 2.16 3.8 2.57 1.83 4.23 1 2.16.08 5.3-1.57 7.97-3.24 4.9-.5 6.63-1.57 4.48.08 5.31 2 .33-1.67-8.13-2.4-2.57-4.73-4.73-2.4-4.48-.58-5.14-1.08-3.82-6.3 1.5-4.48-1.83-5.39-3.24-3.8-2.4-1.09-.75-1.24zm57.82 20.9l-1.57.24-7.8 4.06-1.66 1.41-.5 1.83 5.9-1.9 2.98-2.17 3.48-1.49zM66.51 73.7l-2.57.24-1.9 3.16-1.34.16.09 3.15-2.66 1.66.42 4.56 1 2.15 5.63 2.99 6.3-1.82 2.17-2.24 1.9-2.16-.33-4.48-4.31-3.06-.08-1.74z" class="land departement971" opacity="1" vector-effect="none"/>
</svg>
