<svg xmlns="http://www.w3.org/2000/svg" id="svg2" width="100.17" height="100.57" version="1.0"><defs id="defs4"><clipPath id="clipPath3345"><path id="rect2227" d="M222 101h109v80H222z"/></clipPath></defs><style id="style6" type="text/css">.land{fill:#a83c47;stroke:#fff;stroke-width:.6}</style>
<path id="path55" fill="#a83c47" stroke="#fff" stroke-width=".6" d="M48 2.51l-8.38 3.9-1.2.2.25.37-2.7 2.33v4.34l3.52 3.9-3.53 6.3-3.15 2.02-.44 3.9-6.68.82.38 4.28 2.4.82-5.56 7.87-8.63.76-.38 5.91-3.6 3.53-1.95 5.16-7.88.38 3.15 11.77 3.34 7.3 5.05-.18.31 2.08-2.83 3.2 2.14 4.29h3.21l3.53 3.9h3.22l2.52-2.83.7.76v3.52l1.07 4.66 7.5.32 6.05-6.43 3.21-.31 1.08 1.76 1.76 3.9h2.9l1.07-7.11 6.05.76 3.53-4.29 5.74 1.39 8.57-3.9.07.75 2.77-2.9-3.6-5.35-1.38-7.11 4.6-3.9 2.14.69 6.43-7.12 3.53.38 1.45-1.82h7.13L99 54.64l.7-2.2-3.22-.44 2.2-6.68-5.04-2.2 5.04-11.71L92 26.44l-2.27-14.49-6.11-1.63-4.48 4.4-2.2-3.9-6.69 6.67-4.47.57-7.75-11.08z" class="land departement46"/>
</svg>
