<svg xmlns="http://www.w3.org/2000/svg" id="svg2" width="100.17" height="100.57" version="1.0"><defs id="defs4"><clipPath id="clipPath3345"><path id="rect2227" d="M222 101h109v80H222z"/></clipPath></defs><style id="style6" type="text/css">.land{fill:#a83c47;stroke:#fff;stroke-width:.6}</style>
<path id="path45" fill="#a83c47" stroke="#fff" stroke-width=".6" d="M85.84 19.88l-3.7 2.1-7.45-.24-.7-1.16-4.9 1.65-3.75 1.16-2.8-2.1-3 .94-.95-1.2h-3.7l-2.35 1.2L46.5 22l-3.25 2.55-5.85-.45-1.15 1.65-1.4-.5 1.85-1.85-3.25-2.56-3.95 3.5-6.75.46-7.41-3.71-1.07 1.9-5.93 7.21-4.61 1.82-3.33.5v2.84l3.08 2.85 4.61.24.25 3.34 3.62.3 1.03-2.36 4.9 2.06 3.09.79.74 3.1-1.77 1.56v4.87l-3.62 1.81-.25 2.31 2.3 2.6 4.12 1.28.78-3.88 2.3-2.56-.24 3.34 1.81 2.6h4.61l2.06 2.8L40 63.45l5.92 3.63h9.76l.54 5.4 6.66 5.16 2.6 3.1 2.84-1.54 2.55-.53 1.28 1.28 2.34-1.28 4.49-2.48.41-5.32 2.06-1.56 1.07-8.5 3.83.78 1.56-1.03-1.8-3.63 6.95-5.94 4.12-9.28 2.55-3.34-3.09-4.62-2.06-3.1 2.84-2.6-4.36-7.2-6.96-.5z" class="land departement64"/>
</svg>
