<svg xmlns="http://www.w3.org/2000/svg" id="svg2" width="100.17" height="100.57" version="1.0"><defs id="defs4"><clipPath id="clipPath3345"><path id="rect2227" d="M222 101h109v80H222z"/></clipPath></defs><style id="style6" type="text/css">.land{fill:#a83c47;stroke:#fff;stroke-width:.6}</style>
<path id="path197" fill="#a83c47" stroke="#fff" stroke-width=".6" d="M70.77.65l-.32.38h-3.9L64.53 3.8l-2.55 1.47v3.41l-6.34.76-3.42-2.44-4.6.7-4.4 3.42-3.14 5.36-3.15.98-1.46 3.63-3.9.7-5.37 4.39-7.05-.22-2.17 1.68h-1.95l-6.83 5.58-3.1-.1-.05 2.05.5 3.63 4.38 2.93 2.44 3.2-.76 3.35-2.16 5.15-1.47 3.36 9.49 3.2 6.07-.49.49 5.1v6.82l7.54 2.44 3.41.92 4.88 4.66-.49 3.9-2.22 3.14-6.07 1.95 1.46 3.41.7 2.66-2.65 2.65.27 2.44 4.12.38.05-.32 20.99-19.67-.66-16.25 7.43-3.69 5.1-2.38 4.71-4.4.38-6.44 4.72-2.38L88.55 31.9l-1.68-4.06 3.74-1.68 4.4-5.42-2.4-2.38-8.12 1.68-.33-1.36 7.48-8.61z" class="land departement25"/>
</svg>
