<svg xmlns="http://www.w3.org/2000/svg" id="svg2" width="100.17" height="100.57" version="1.0"><defs id="defs4"><clipPath id="clipPath3345"><path id="rect2227" d="M222 101h109v80H222z"/></clipPath></defs><style id="style6" type="text/css">.land{fill:#86aae0;stroke:#fff;stroke-width:.6}</style>
<path id="path97" fill="#86aae0" stroke="#fff" stroke-width=".6" d="M61.53.6l-8.15.28-7.52 1.5L37.7 3v4.18L33.5 9.9l-9.35-2.1-6.32 2.68 3 4.23v3.6l7.23 6.01-1.79 3.9 4.82 5.37-2.12 2.74 3 4.47.9 8.41-1.78 2.4 2.12 3.6-2.12 3.95.3 2.4 2.4-1.83 3 3.03-4.2 2.7-1.5 1.77-3.32.91-3.9 1.83-.3-.24.15 4.42L27 77.72v1.97l4.92 3.6 6.22.34 4.24 5.52 6.9-.62 5.6 3.89 4.23 1.97.68 3.27 2.36 2.26L65 98.33l-.63-1.63 2.27-2.65V91.8l3.95-1 5.25-2.6 5.55-.96 1.01-2.98-4.63-1.3-2.26-3.6 1.64-3.9 1.97-2.3v-4.9l-1.97-1.3-2.6 1.3v1.63l-1.36 1.97-2.6-2.93-.34-1.97 1.01-2.26-2.31-1.63v-6.87l-1.3-.34v-2.3l1.97-3.27.3-1.64 1.34-3.55-1-2.3-3.29-1.3 3.28-4.9 1.01-2.6v-1.63l-2.31-2.65v-.96l1.3-2.3-.96-1.64 1.97-2.26-1.64-3.6-1-5.24-.35-3.27-2.6.34-.48-7.4-.63 1.1-2.12-1.77z" class="land departement79"/>
</svg>
