<svg xmlns="http://www.w3.org/2000/svg" id="svg2" width="100.17" height="100.57" version="1.0"><defs id="defs4"><clipPath id="clipPath3345"><path id="rect2227" d="M222 101h109v80H222z"/></clipPath></defs><style id="style6" type="text/css">.land{fill:#a83c47;stroke:#fff;stroke-width:.6}</style>
<path id="path115" fill="#a83c47" stroke="#fff" stroke-width=".6" d="M57.28.6L47.12.94l-10.16 9.36-5.3-.3-7.03 2.29-2.16 3.72-.96 8.04.66 4.92-5.6 4.68-1.56 3.06 1.27 2.82-1.57 3.73.6 1.56-6.19.6-.9 2.76 2.77 6.84-.3 1.86-2.47 2.16-5.3.3-.65 1.86 1.26 1.86v11.17l-1.2 2.82 3.36 2.76v3.72l5.6.3 14.6 4.32 15.82 9.6 5.11 1.99 2.53-5.05 7.51 5.29h4.15l-2.28-7.5 4.57 3 2.58-3.79 10.88-3-1.86-4.5 2.64-3.36 5.66-2.22 5.23-6.78v-7.15h3.79l1.5-5.22.36-7.86-3.73-3.42 3-5.22 4.46-5.65-5.23-3.72-4.87-.78-5.3-7.86h-1.5l-.36 3.72-.36-2.58h-7.88l-3.78-5.64-6.38-2.28-1.86-13.5z" class="land departement72"/>
</svg>
