<svg xmlns="http://www.w3.org/2000/svg" id="svg2" width="100.17" height="100.57" version="1.0"><defs id="defs4"><clipPath id="clipPath3345"><path id="rect2227" d="M222 101h109v80H222z"/></clipPath></defs><style id="style6" type="text/css">.land{fill:#a83c47;stroke:#fff;stroke-width:.6}</style>
<path id="path77" fill="#a83c47" stroke="#fff" stroke-width=".6" d="M47.55.6l-4.48.4-3.75 3.67-2.43-3.28-3.68 3.28-5-3.28h-4.08l-1.64 1.25-.86 4.72 2.24 1.76v4l2.7 4.46-2.24 2.69h-8.49l-.46 7.99-2.7 2.69 1.78 6.68v4l3.62 3.54v4.91L23.4 55v5.76l-2.63 4 3.09 1.84v3.08l-2.7 2.22v3.6L32.81 86.2l13.88 2.23 1.32 4-4.48 5.3 3.62 2.23 4.47-1.77 4.8.72 8.62-4.26-1.38-2.68-5.79-5.77 8.95-3.15 11.64-2.68 8.95-11.54-5.86-4.91.33-4.26-8.35-2.43-5.4 1.77-.85-7.14-4.93-4.45-3.16-.46-8.03-4.85 1.32-3.15V25.11l2.24-3.08.79-9.56-1.39 3.27-2.89-.39-1.58-8.2z" class="land departement69"/>
</svg>
