<svg xmlns="http://www.w3.org/2000/svg" id="svg2" width="100.17" height="100.57" version="1.0"><defs id="defs4"><clipPath id="clipPath3345"><path id="rect2227" d="M222 101h109v80H222z"/></clipPath></defs><style id="style6" type="text/css">.land{fill:#a83c47;stroke:#fff;stroke-width:.6}</style>
<path id="path11" fill="#a83c47" stroke="#fff" stroke-width=".6" d="M65.1.64l-4.32 2.9.6 2.84 2.3 2.9-2.58 1.97 1.15 2.3-1.75 2.02v2.57l2.9 2.62v4l-1.75 3.72-1.98.87-2.3-3.17-4.05.33-.88-.6H49l-3.13 2.9-1.2 4.86-7.46 1.43-5.76 4.87-1.15 3.17-2.85-.28-1.48-1.74-.83 4.91-2.02.83-.6 4.6.87 2.02-3.17 2.3-.88 2.3 3.23.59.55 1.56h5.7l1.57 1.01 4.2-.78 1.8 1.06-.8 1.28 2.86 3.9h5.48l1.34 3.91h3.87l-.23 2.35 3.13 3.9 1.56.78 2.08 1.3v4.95l1.56 1.29h3.13l.79 1.29.5 7.03 1.85 1.28-.79 1.06.5 4.14 6-.23 5.02-3.31-.19-8.5 6.9-9.74V62.1l-2.85-5.46-.87-17.23-2.03-3.17-3.73-2.85-.6-10.66 1.75-4.87-2.3-7.77-1.43-6.3-1.2-1.74z" class="land departement2b"/>
</svg>
