<svg xmlns="http://www.w3.org/2000/svg" id="svg2" width="100.17" height="100.57" version="1.0"><defs id="defs4"><clipPath id="clipPath3345"><path id="rect2227" d="M222 101h109v80H222z"/></clipPath></defs><style id="style6" type="text/css">.land{fill:#a83c47;stroke:#fff;stroke-width:.6}</style>
<path id="path103" fill="#a83c47" stroke="#fff" stroke-width=".6" d="M21.49.65l-1.06 2.67 5.59 4.48v5.83l-2.12 2.63 1.32 1.3.8.56-.55 5.03 1.86 4.23 6.1 6.85 1.32 6.09 1.3 1.86v9.51l3.19 6.35v7.4l-3.44 6.85 3.69 9.52 5.85 1.3.5 2.67-2.88 1.31h-5l.81 3.34 1.57 5.03 4.53 3.98 2.12.5 2.12-2.87 2.37-.3 2.88-3.42 2.67 2.11h3.17l2.12 1.06v.5l4.5.56 2.66-2.12 3.94 1.61.08.17 4.54-3.85 1.52-5.03-.42-2.2.63-2.58-2.62-2.62-6.78-4.4-5-.42-5.04-6.35 4.15-1.52 1.74-3.25-2.16-2L66 61.3l1.94 1.53 3.52-2.16 2.2-3.51.85-3.47-1.53-3.08.9-1.1-2-3.26 2.2-2.83-1.73-2.2-2.2 2.83-3.05-1.73-5.04-5.04-.22-2.15 1.53-1.53-.47-2.91-2.5.63-.25-6.34-6.9-8.16 2.11-5.29h2.93l-2.63-7.15-11.4-.55-6.1 4.23-6.86-4.48z" class="land departement50"/>
</svg>
