<svg xmlns="http://www.w3.org/2000/svg" id="svg2" width="100.17" height="100.57" version="1.0"><defs id="defs4"><clipPath id="clipPath3345"><path id="rect2227" d="M222 101h109v80H222z"/></clipPath></defs><style id="style6" type="text/css">.land{fill:#a83c47;stroke:#fff;stroke-width:.6}</style>
<path id="path67" fill="#a83c47" stroke="#fff" stroke-width=".6" d="M43.68 11.93l-5.73.32-3.87 3.86-1.22-2.7-2.71 1.54-.27-.64-1.53 1.54-4.78 1.8-3.92 2.38-10.19 1.22-1.22 5.1h3.93l-3.93 3.6-1.8 3.28H.76l2.97 3.28-1.7 2.81.54.22 1.48 4.45 3.6 4.24.9.58.27 4.18 3.03 4.83 2.39 2.7v3.28l-2.4.9 1.81 2.7 7.8 3.3 1.49 2.11 3.92 4.77 4.51 1.22 3.6-.64v4.24l-.1 2.18 1.96-.27-.47 2.33h6.58l6.1 1.91.47-6.1h2.81l10.3 1.86h9.86l7.48-2.33 1.91-6.1-5.14-4.71 1.38-4.66 2.8-4.19 4.68 3.23 12.2-4.18 1.9-3.77-6.2-3.97-2.7-.64-1.81 2.39-3.6.9-5.74-2.97-5.99-7.79v-3.28l-3.29-6.04.32-2.7-2.7-6.9-5.1-2.38-3.6-6.3-9.93-1.8z" class="land departement81"/>
</svg>
