<svg xmlns="http://www.w3.org/2000/svg" id="svg2" width="100.17" height="100.57" version="1.0"><defs id="defs4"><clipPath id="clipPath3345"><path id="rect2227" d="M222 101h109v80H222z"/></clipPath></defs><style id="style6" type="text/css">.land{fill:#86aae0;stroke:#fff;stroke-width:.6}</style>
<path id="path121" fill="#86aae0" stroke="#fff" stroke-width=".6" d="M71.37 18.1l-5.75 1.27-1.86-1.13-5.39.9-.22 2.14-1.86.45-.68-3.04-2.36.45-3.53 4-5.35 4L38.53 29l-4.67-2.6-5.39.96-3.26-3.27-3.08 1.14L17 28.77l-5.85-1.63-4.2 4.9-5.72 1.72 3.13 2.05 2.8 2.81-.67 2.77.45 2.36-1.63 5.4L.47 53.3l1.9 3.22 3.13 2.27 4.26-2.86 2.8 2 7.67-4.54 7.65 1.13 4.22-1.72 1.17-2.82 2.81-.27 2.54 2.27 1.13 6.22 3.67 1.4 1.45 5.14 4.8.27 7.66-7.08 7.66-.27 2.26 3.08 1.4 10.22 4.8 1.72 2.86 4.27h5.94l.27 1.95.27-2.81h1.13l4 5.95 3.07.5V75.8l-1.95-2.59-.59-2.27 4.26-2.54 4.26-.87 2.81-3.4-.54-10.49-5.98-5.08-.28-4.86-5.07-3.4 2-2.82-1.18-4.27-3.95-1.4-2.85-2.87L80.25 25l-7.92-.27-2.27-2.86z" class="land departement61"/>
</svg>
