<svg xmlns="http://www.w3.org/2000/svg" id="svg2" width="100.17" height="100.57" version="1.0"><defs id="defs4"><clipPath id="clipPath3345"><path id="rect2227" d="M222 101h109v80H222z"/></clipPath></defs><style id="style6" type="text/css">.land{fill:#a83c47;stroke:#fff;stroke-width:.6}</style>
<path id="path43" fill="#a83c47" stroke="#fff" stroke-width=".6" d="M35.3.59l-3.58 1.9.63.06 6.13 10.08-3.99 3.63 2.89 4.32 4.33 6.46-3.58 4.66-5.78 12.97-9.76 8.3 2.55 5.07-2.2 1.44-5.37-1.1-1.5 11.88-2.89 2.19-.58 7.43.93-.52L19.65 83l7.22 5.42.7 4.32 5.77 4.67h4.73l11.9-5.07 5.02 5.76 6.88 1.85 2.54-4.33 3.23 1.45 7 .46-.47-19.37h3.64l3.23 1.62 2.31-2.25-.34-3.57 4.56-2.65-1.62-6.8L84 62.82l-3.93 1.33 1.96-3.29-.98-4.2-5.89-4.27.35-2.94 3.29-5.53 4.22-1.61V40l2.6-3.93 1.73-2.42-6.59-3.4h-8.83l-1.33-2.65h-4.56l-1.33-2.94h-4.22L59.15 26h-4.9l-.3-2.94-3.92-2.6 1.33-1.32.63-3.23-.98-.97-1.96-5.25-4.28-.63-4.21-2.3.28-6.17z" class="land departement65"/>
</svg>
