<svg xmlns="http://www.w3.org/2000/svg" id="svg2" width="100.17" height="100.57" version="1.0"><defs id="defs4"><clipPath id="clipPath3345"><path id="rect2227" d="M222 101h109v80H222z"/></clipPath></defs><style id="style6" type="text/css">.land{fill:#a83c47;stroke:#fff;stroke-width:.6}</style>
<path id="path187" fill="#a83c47" stroke="#fff" stroke-width=".6" d="M11.6 25.28l-4.26 5.4-3.24 12L.5 48.86l12.96 5.92 9.9-1.83 12.27 8 13.13.61 9.3 5.75 2.39 8-.09.18 1.02-.18 9.55-5.22 14.33-.96 7.84-3.65 5.03-3.66 1.62-10.7-3.5-3.57L84.6 40.5l-11.26-6-5.8 2.7-6.4 1.65-4.25-3.3-8.53-5.4-6.9 5.4-10.15 1.13-14.41-1.14-3.24-5.4z" class="land departement95"/>
</svg>
