<svg xmlns="http://www.w3.org/2000/svg" id="svg2" width="100.17" height="100.57" version="1.0"><defs id="defs4"><clipPath id="clipPath3345"><path id="rect2227" d="M222 101h109v80H222z"/></clipPath></defs><style id="style6" type="text/css">.land{fill:#a83c47;stroke:#fff;stroke-width:.6}</style>
<path id="path153" fill="#a83c47" stroke="#fff" stroke-width=".6" d="M4.3 14.29l-2.34 2.8-1.43 3.53H3.4l-1.43 3.6-1.43 7.14 2.12 3.54V41h3.6l-1.43 2.46-2.52 4.68-1.03 3.2 3.2 2.85 1.03 8.22 1.83 2.85-2.51.69-3.2-1.77-.57 4.22.22-.28 1.38 3.2 2.17 3.54 9.66.74 6.8-.74 4.64-3.54 5.71 3.54 2.86 2.16 4.3-1.08 3.88-1.77 7.55 3.94 7.83 4.62 2.51 2.52 4.3-2.86 3.54 2.11 2.17 1.77 3.2-.34 2.17-2.85 4.98 2.85 6.12-2.51 3.54 1.08 3.55-2.85 2.17-1.09.69.52.74-4.85-2.57-2.92-4.35-2.9-1.83 2.9-1.09.35-.34-5.43 3.26-.74-.74-5.02-4.35-.74 2.17-3.66 6.18-1.43 2.17-8.67 3.26-1.49-4.34-3.25 1.48-3.25.69-10.85-1.49-8.4-7.55.75-5.08-.69-9.44 2.52-8 7.59-6.52-2.17-6.52-.69-5.09-5.08-9.09-2.56-12.29 1.08L23 18.97h-6.57l-4.7 1.82-2.17-1.48v-3.94l-.74-1.08z" class="land departement60"/>
</svg>
