<svg xmlns="http://www.w3.org/2000/svg" id="svg2" width="100.17" height="100.57" version="1.0"><defs id="defs4"><clipPath id="clipPath3345"><path id="rect2227" d="M222 101h109v80H222z"/></clipPath></defs><style id="style6" type="text/css">.land{fill:#86aae0;stroke:#fff;stroke-width:.6}</style>
<path id="path37" fill="#86aae0" stroke="#fff" stroke-width=".6" d="M34 4.03l-1.14 4.12 1.85 4.48-2.27 2.63h-3.7L25 11.14l-3.34-1.85-.36 10.45-6.74 4.12-4.83 6.69 1.13 6.74-1.5 2.99-1.9 5.97H4.47l-2.98 3.7 2.26 2.27 1.5 3.7-4.84 3.4 1.97 12.49 6.32 4.72-4.77 11.1 4.77 2.1-2.09 6.32 4.18.54 3.16-5.25h5.31l1.01 1.55h11.64l2.08-4.72 2.63-1.07 1.07-8.42h2.63v-8.96l10.55-9.02 1.08 1.61 1.01 6.87 7.4-1.07 1.6 10.57h3.65l1.07 10.57 3.28 4.06 5.37-12.37 5.25-16.42L87.26 69l2.98-6.69 9.55-3.46v-3.16l-2.03-3.05-4.06-2.39 2.03-3.04L94 45.53l2.03-.65 2.38-2.03-4.05-.36-2.03-2.69-.66-7.1-2.38-2.4-1.67-6.02h-8.47l-1.67-4.78-2.69-.3-1.37 2.69-5.37-.36-5.07-7.76-2.03-.3-4.05-2.03-2.39 2.33H48.5l-3.04-6.4z" class="land departement15"/>
</svg>
