<svg xmlns="http://www.w3.org/2000/svg" id="svg2" width="100.17" height="100.57" version="1.0"><defs id="defs4"><clipPath id="clipPath3345"><path id="rect2227" d="M222 101h109v80H222z"/></clipPath></defs><style id="style6" type="text/css">.land{fill:#a83c47;stroke:#fff;stroke-width:.6}</style>
<path id="path167" fill="#a83c47" stroke="#fff" stroke-width=".6" d="M31.82.64l-7.4 1.26-.96 7.94-6.7 4.77-3.47-1.2-1.66 3.46-.3 4.77 5.74 8 5.44 1.9 1.26 6.69.35 11.46-1.92 2.86-5.43.35-3.53 3.17 2.57 1.6 1.06 4.03 3.77 2.1 5.64 5.99 7.26 9.75-4.08 4.37 2.82 1.9.3 5.33 5.04-.3 1.25 2.51 3.78.3 2.82-1.55 5.04 6.28.65 1.56 6.9-1.56 1.31-3.17.3.05V92.1l4.39-1.91 5.03 1.9 4.74-1.9h2.82l.95-6.28 1.56-1.86-2.82-.3-.3-3.77 4.38-.96.3-2.51h4.44v-4.07l3.47-1.26-.96-2.5.96-.61-2.87-2.26-3.42 1.25v-6.58l-8.82-4.37 1.87-8.5 2.82-1.9-.91-2.82-4.13-.6-.9-4.12h-3.78l-4.43-5.93-5.04-.35-2.17-3.12 2.82-2.81-6.64-7.24-2.82-.95L42.65 12l-4.08-4.38-6.6-.95z" class="land departement52"/>
</svg>
