<svg xmlns="http://www.w3.org/2000/svg" id="svg2" width="100.17" height="100.57" version="1.0"><defs id="defs4"><clipPath id="clipPath3345"><path id="rect2227" d="M222 101h109v80H222z"/></clipPath></defs><style id="style6" type="text/css">.land{fill:#a83c47;stroke:#fff;stroke-width:.6}</style>
<path id="path101" fill="#a83c47" stroke="#fff" stroke-width=".6" d="M56.37 13.05l-1.79 3.34h-5.12l2.04 2.1-1.55 5.13-4.63 1.55-1.79-1.3.8-5.13-1.3-2.84H40.2l-2.04 2.29 1 7.23 2.33 3.34-2.34 2.59-4.32-.8L28.4 29l-1.8-4.88-4.13-.5-5.37-2.34-1.3-3.1-5.86-3.83L.69 26.31l-.3 7.48 9.6 9.32-.3 2.8h2.8L18.4 63.7l6.22 3.09 6.22 6.23h7.17l2.79 6.23h6.86l3.09 4.68 6.87 3.44.3-4.38 1.74 1.64 9.5-5.78 4.38-.3 1.84 4.98 5.92-2.49 4.98 3.74 4.03-1.9 3.43-.94 1.54-1.84 4.33-2.8-3.08-3.14-2.49 1.9-.3-2.5 2.2-4.08-2.2-3.74 1.84-2.5-.94-8.71-3.09-4.64 2.2-2.84-4.98-5.58 1.84-4.04-7.47-6.23v-3.74l-3.08-4.39.6-.25-4.23-3.58h-7.97l-2.58-1.55-3.59-.5-4.13-3.89z" class="land departement85"/>
</svg>
