<svg xmlns="http://www.w3.org/2000/svg" id="svg2" width="100.17" height="100.57" version="1.0"><defs id="defs4"><clipPath id="clipPath3345"><path id="rect2227" d="M222 101h109v80H222z"/></clipPath></defs><style id="style6" type="text/css">.land{fill:#86aae0;stroke:#fff;stroke-width:.6}</style>
<path id="path27" fill="#86aae0" stroke="#fff" stroke-width=".6" d="M38.27 15.16l-3.98 5.13-2.29.28-2.56 2.6-2.88-3.15-7.69 7.74v4.58l1.42 1.14.27 2.3-3.98 3.11-3.75-1.15-7.14 1.47-3.7 4.26L.6 46.4l.23-.04 3.43 4.85v3.44l1.97 2.56 2.01-2.56 2.29 4.03 3.16 1.15 3.16 7.42.13 2.15 4.35 3.4 2.34-1.06 1.83-4.4 1.78-.5V64.5l3.11-.28.28 1.56 3.89-4.4h4.4l.77 1.56-2.06 2.84 3.07 3.4.55 2.05 7.23 4.17 8.78 1.28 2.61-.27 3.9.78 3.33-2.06 2.61 1.28.5 3.62 3.4.78 4.38-.23 1.29 3.11 4.02 1.6.14-1.41 6.87-.32-.55-16.31-2.02-3.99.83-3.16 4.76-.82.13-.32 6-4.59.27-11.17-2.01-2.84h-4.58l-1.69-2.3h-4.85l-1.42-1.74v-4.3l-5.77-10.86-2.83-2.01-5.45 7.46-2.29.55-.87-3.7-2.56-1.15-1.14 2.29h-4.26l-.6-2.57-2.88 1.7-3.11 1.74-3.43-3.76-4.9-2.29-.27-3.71z" class="land departement03"/>
</svg>
