<svg xmlns="http://www.w3.org/2000/svg" id="svg2" width="100.17" height="100.57" version="1.0"><defs id="defs4"><clipPath id="clipPath3345"><path id="rect2227" d="M222 101h109v80H222z"/></clipPath></defs><style id="style6" type="text/css">.land{fill:#a83c47;stroke:#fff;stroke-width:.6}</style>
<path id="path23" fill="#a83c47" stroke="#fff" stroke-width=".6" d="M64.95 7.68L62.3 8.86l-.62 4.46-5.3.61-.9-4.17-1.75-1.75-5.35.57-2.08 1.8-1.19 6.2.9 1.47 6.2.62 1.19 3.84 2.36 1.18v6.5l-5.63-.29-2.37 2.65L41 31.37l-3.83 3.27-2.7-1.19-3.83 2.99 1.47 2.65-2.37 2.37h-7.39v3.56l2.37 1.18-.9 2.09-5.02 2.03-6.2.62-1.8 5.64-.28 3.55 3.27 2.66-3.27 3.83-4.12-2.08-4.73-.29-.62 2.66 2.99 2.08-3.6 2.37 1.23 5.02 10.03 2.7 1.8 3.84 2.94.57-1 9.24.05.05 4.54-4.26h5.4l2.13 1.32 2.94-1.09-4.55-5.07-.8-2.41 1.6-.29 2.94 2.7h1.9l-.29-4.31-1.9-.52.81-2.65 3.22-5.4 5.11-2.94 2.42-.53v-2.7h1.6l2.94 2.42v1.9l5.07 3.22 1.37-.57-.8-5.07h-1.38l1.37-1.9 5.59.29 2.98-2.13 4.55 2.41 9.6.24 1.62-4.03 1.08-1.61v-2.94l4.03-.23 1.6-3.23 4.55-2.7 3.22-4.83 3.83.19 2.8-3.03 3.22.28v-2.65l-4.12-2.09-.9-8.58-3.27-1.18-4.12.62-7.71-3.89-1.19-8.86-4.4-1.47-1.51-2.98-1.94-4.27z" class="land departement05"/>
</svg>
