<svg xmlns="http://www.w3.org/2000/svg" id="svg2" width="100.17" height="100.57" version="1.0"><defs id="defs4"><clipPath id="clipPath3345"><path id="rect2227" d="M222 101h109v80H222z"/></clipPath></defs><style id="style6" type="text/css">.land{fill:#86aae0;stroke:#fff;stroke-width:.6}</style>
<path id="path89" fill="#86aae0" stroke="#fff" stroke-width=".6" d="M31.38 5.09l-2.36 6.36-7.18-.38-1.6-.83-4.76.45-3.57-2.42-6.87 7.89.13 5.85L.4 31.5l.89 4.78 5.15 1.27 3.5 8.65 3.44 3.5-1.28 16.42 7.32-2.16 3.05 3.88-4.77 3.88v3.95l3.88.38 6.93-.38 2.17-3.06h1.71l-.82 5.22 5.6 2.55 5.21 3.5v2.16h-3.05l.89 5.15 2.03 1.28.51-.83 6.49-1.27 1.72-4.33h3.05l2.16 2.99h9.93l1.78 2.6 3.88 3.9h4.77l2.54-3.9h7.82l4.01-3.1-8.27-8.28-.76-3.56 7.57-4.4 4.39-2.35 1.14-5.6 4.77-3.56-1.59-7.58-3.18-3.94-.76-12.35-4.39-10.3-4.39-1.6-3.18-5.6-2.8 3.57-2.73-3.57v-4.77L71.96 7.9l-13.1 1.59-7.58-1.98z" class="land departement23"/>
</svg>
