<svg xmlns="http://www.w3.org/2000/svg" id="svg2" width="100.17" height="100.57" version="1.0"><defs id="defs4"><clipPath id="clipPath3345"><path id="rect2227" d="M222 101h109v80H222z"/></clipPath></defs><style id="style6" type="text/css">.land{fill:#86aae0;stroke:#fff;stroke-width:.6}</style>
<path id="path179" fill="#86aae0" stroke="#fff" stroke-width=".6" d="M18.03 9.36l-4.43.29-3.54 2.97-.9 1.46h-5l-1.75-1.8h-.76c.12 2.54.24 4.44.24 4.44L.43 19.03 4.2 27.1l1.42 1.18 1.75 4.62-2.32 4.01 2.6 2.6-1.13 2.3v3.21H3.3l-.29 3.73 6.1 3.77-.3 4.62h4.63l2.32 3.16h5.75l5.81 7.26 1.42 4h3.77l7.5 3.21 6.66 4.01v1.18l4.34.28 5.48 3.16h5.19l4.34 3.2 4.91 3.45 3.5 1.13 5.28-5.28 1.8-6.18-2.37-2.35-.28-2.08 3.5-6.5-8.22-4.72-4.72 3.54-2.69-1.75 1.18-2.64-2.93-2.07-3.87-1.8v-3.81L65 54.35l1.47-6.8 2.64-2.92 1.18 4.44 3.26 1.46 5.61.9 2.93 2.92h3.54l2.97-2.08 3.83 2.69h2.07l2.36-2.07v-4.44l2.6-4.52-.62.19-2.03-2.93-5.9-3.53-2.07-3.26-7.08.61-4.15 3.82-10.01.29-2.97-2.08c-.2-.36-1.65-2.92-2.93-3.63l-.19-.1-.14-.04-.1-.05H61.09c-1.39 0-4.06-1.55-4.4-1.74l-4.15 1.74-.28 3.54-5 .61-2.98-5.6-1.74-.62v-4.1l-4.16-1.8-.28-7.07-2.97-2.92-6.18-2.97H26l-.9.61h-2.97z" class="land departement57"/>
</svg>
