<svg xmlns="http://www.w3.org/2000/svg" id="svg2" width="100.17" height="100.57" version="1.0"><defs id="defs4"><clipPath id="clipPath3345"><path id="rect2227" d="M222 101h109v80H222z"/></clipPath></defs><style id="style6" type="text/css">.land{fill:#a83c47;stroke:#fff;stroke-width:.6}</style>
<path id="path129" fill="#a83c47" stroke="#fff" stroke-width=".6" d="M74.36 14.42l-1.98 2.4-12.92 9.94-22.9 5.74-15.08 5.4-12.34 6.66L1.9 55.4.4 63.84l6.03 4.54 8.72 1.78-1.4.24.05.24 6.75-.87 3.47-3.7 2.6-.64 3 5.21 4.14-.43 1.73 2.99 7.33-.44 7.38 5.21-4.78 1.5 3.47 2.6h2.17L53 86.22h3.47l1.06-2.6-2.6-1.74 7.37-2.17 7.77-.87 1.97-5.64 3.66-3.23 6.95-.2 8 4.1 4.77.53.82-2.5 2.12-3.96 1.2-2.07h-3.03V60.7l-1.79-3 1.2-6.02 1.21-3.04h-2.4l1.2-2.99 2.99-3.61-3-5.45-.9-5.4-13.26-12.97-1.5-3-3.32.3z" class="land departement76"/>
</svg>
