<svg xmlns="http://www.w3.org/2000/svg" id="svg2" width="100.17" height="100.57" version="1.0"><defs id="defs4"><clipPath id="clipPath3345"><path id="rect2227" d="M222 101h109v80H222z"/></clipPath></defs><style id="style6" type="text/css">.land{fill:#a83c47;stroke:#fff;stroke-width:.6}</style>
<path id="path135" fill="#a83c47" stroke="#fff" stroke-width=".6" d="M43.59 10.86l-4.07 3.77-9.19.8-.35.61.9 1.81-2.9 2.47.64 5.88-2.46.45-1.6 5.83-2.72 2.97h-3.81l-3.62 2-2-2.25-2.27-.9-2.46 1.6v2.46l-1.8 1.36-2.92-1.8-1.8 1.35.2 2-.86 1.87.65.2h2.67l-.2 1.81-1.81 3.12v1.6h1.8l1.56 1.82.45 1.8-3.56 3.58 1.76 4.32v2l2.96 2.02 4.07.45 2.66 2.27.7 3.87 2.91 3.36 3.17-.9 1.35-2.92 4.98.66 1.1 1.15h3.16l1.56-1.8 11.5.45 2.71 4.02 3.17 1.36 2.7 2.5 3.37-.44.9-1.16h2.02l2.5 3.17 5.18.25 1.36 1.76 3.61 4.98 1.56 1.35 2-.2.26-4.52.9-.46 1.36.2 2.26 2.97 1.56.66 3.2-1.31-.5-.55-.3-3.17 6.28-1.86-.95-3.47-.96-5.03-4.06-5.63-.96-3.47h6.28l4.42-3.16.6-4.68-2.81-3.17 8.19-6.88v-5.69L95.67 36l-1.56-5.03-5.67-5.38-7.84 4.43-.6-2.52-3.47-.3-.95 2.52-3.11.6-8.5-.3-3.46 2.21-2.8-2.51 5.01-3.47-.3-5.33L58.66 19l-3.17-4.73-8.43-.6z" class="land departement45"/>
</svg>
