<svg xmlns="http://www.w3.org/2000/svg" id="svg2" width="100.17" height="100.57" version="1.0"><defs id="defs4"><clipPath id="clipPath3345"><path id="rect2227" d="M222 101h109v80H222z"/></clipPath></defs><style id="style6" type="text/css">.land{fill:#a83c47;stroke:#fff;stroke-width:.6}</style>
<path id="path127" fill="#a83c47" stroke="#fff" stroke-width=".6" d="M49.93 11.28l-6.57 1.06-1.06 3.44-3.5 2.45-2.4-2.78-1.72 1.06L36 18.56l-3.45 2.12 1.06 2.78-3.84 1.39v4.5h-4.9l-.33 2.79-4.84 1.05.33 4.17 3.12.34-1.73 2.05-1.06 6.96h-3.11l-5.23 2.11-5.57-2.11-4.84 2.11v3.5L5.4 53l2.79 5.56.39 2.78-4.51 5.23-2.12.67-1.39 1.72 3.84 1.78.67 5.56 3.12.34.39 6.95 1.39 1.4.16 1.1 2.68.73 3 2.5h4.5l1.73-1.73 3.07.12 3.17.1 7.01-5.72h2l2.23-1.73 7.24.23 5.5-4.5 4.01-.73 1.5-3.73 3.23-1 3.23-5.5 4.51-3.5 4.73-.73 3.5 2.5 6.52-.78v-3.5l2.62-1.5 2.05-2.84h4.01l2.23-2.33.83-5.57v-3.44l-1.5-5.29V33.7l2.73-2 3.23-1.67-.34-.67-11.13-5.9-3.12-3.5L82 17.9l-2.79 1.39-.39 2.06-2.78 1.72h-1.72l-5.24-5.9h-7.29l-3.11 2.45-2.79.34-4.5-3.45.33-3.84z" class="land departement70"/>
</svg>
