<svg xmlns="http://www.w3.org/2000/svg" id="svg2" width="100.17" height="100.57" version="1.0"><defs id="defs4"><clipPath id="clipPath3345"><path id="rect2227" d="M222 101h109v80H222z"/></clipPath></defs><style id="style6" type="text/css">.land{fill:#86aae0;stroke:#fff;stroke-width:.6}</style>
<path id="path151" fill="#86aae0" stroke="#fff" stroke-width=".6" d="M30.08 10.16l-3.83 1.64.66 3.16h-6.74l-6.02 4.5v8.58l4.44 2.91 1.27 2.86-7.35.62-.92 2.9 2.86 1.9-1.27 1.94-2.86 1.28.61 2.2h4.14l1.63 2.24-2.86 1.94-2.55 6.7-4.8 2.24-1.64 3.48-1.58 1.94.36 1.89-2.55 1.63-.67 4.45 2.55 1.58 1.28 4.8-1.58 2.86.97 2.25 4.75-.3v1.58l1.38-.3 5.5 5.81 7.77-1.27 9.09-6.18h5.46l5.52-3.89 6.48-3.57 4.85.36.66 6.48 5.82 8.74h6.49l9.09-1.94 6.48 2.25 6.8-4.86.96-8.07 7.5-1.28-.15-5.05-6.07-4.8-.67-2.56 2.25-3.83-1.94-1.59 1.94-4.8L97.11 52l2.56-7.97-5.1.3 2.85-3.16-2.25-7.05-2.2-4.8 2.87-2.56-1.64-.3-.4-2.2-.46.05-2.91-2.6-3.27 3.27h-.97l-1.28-1.64-7.76-.3-1.33 1.94h-2.24l-1.94-4.25H67.4l-.97.98-4.19-.31-5.2-3.88-3.58-.97-1.28-1.95-6.79-4.24-7.76-.2.1 2.91-2.24.62z" class="land departement51"/>
</svg>
