<svg xmlns="http://www.w3.org/2000/svg" id="svg2" width="100.17" height="100.57" version="1.0"><defs id="defs4"><clipPath id="clipPath3345"><path id="rect2227" d="M222 101h109v80H222z"/></clipPath></defs><style id="style6" type="text/css">.land{fill:#a83c47;stroke:#fff;stroke-width:.6}</style>
<path id="path147" fill="#a83c47" stroke="#fff" stroke-width=".6" d="M30.72 10.51v.27h-4.15l-3.35 1.99-1.99 2.78 1.6 2.39 1.36.8-.97 2.38-1.41.8-1.55 2.16 1.77 1.2-.22 2.78.4 2.96 2.6 1.6v1.19l-2.78 1.59v1.77L24 38.94l-.22 1.01-4.32-.22-.4 1.42-1.99.4-1.98 2.56h-2.56l-2 1.99-2.6.4-1.36-3.37-1.77-.22-4.33 2.7 5.12 9.64v4.15l1.37 1.68h4.68l1.64 2.21h4.41l1.94 2.74-.26 10.79-5.79 4.42-.13.3.4-.04.84.27.26 4.42 4.15.84.53 1.94h2.21l3.31-1.94L34 88.4l1.68 1.68 2.2-2.21h3.05l1.64-8.84 1.1-.84h2.74l3.35 2.2 2.47-2.2 1.64 2.2 2.51-2.47 3-.26 1.42 4.42 1.06 5.52 1.94.27 1.68-3.9 5.2-20.41 1.95-3.58 3.05-.31 3.04 2.52 2.21-.58 2.74-1.94 2.78.57 1.63 3.58 1.6.62 7.23-.88 2.78-2.21-1.1-1.68-3.31-1.1-.3-3.85 2.77-1.95 1.1-4.68-2.47-4.42-1.67-2.21.83-.84v-2.75l-2.2-1.41-.58-2.21 6.36-.8.57-2.2h-1.94l-1.63-1.95h-3.05l-2.51-4.15-2.21-.27.26-3.32-2.38-.26-3.18 2.17-3.18.8-2.16-1.38-2.78-.18-.8 1.15-2.56.4-5.74 1.81-8.34 2.96-3.18-2.56-3.75-.8-.18-3.35-3.58-2.61-4.94-3.76-5.56.18-5.35-5.53z" class="land departement71"/>
</svg>
