<svg xmlns="http://www.w3.org/2000/svg" id="svg2" width="100.17" height="100.57" version="1.0"><defs id="defs4"><clipPath id="clipPath3345"><path id="rect2227" d="M222 101h109v80H222z"/></clipPath></defs><style id="style6" type="text/css">.land{fill:#a83c47;stroke:#fff;stroke-width:.6}</style>
<path id="path143" fill="#a83c47" stroke="#fff" stroke-width=".6" d="M34.6.59l-.63 3.94L30 6.68l-10.05.3.44 2.19.25 2.19-3.08 2.2v3.7l.64.68h2.44l1.51 2.59-.88 4.38-3.51 2.64v2.63l1.12.88-.24.63-2.2.88-.63 3.27-3.51 7.45-2.4 3.51v3.52l.88 1.5-1.31 1.76L6.4 55.1l.2 3.07 2.88 1.76 1.07 2.39-.44 3.31-.63 2.4 1.5 2.63 4.4.87 1.95 3.07v1.32l-1.32.44v3.17l.25.1 5.9 6.1 6.15-.2 5.46 4.14 3.95 2.88.2 3.7 4.15.88 3.5 2.83 9.23-3.27 6.34-2 2.83-.44.88-1.26 3.07.19 2.4 1.51 3.5-.88 3.52-2.39 2.63.3.05-.3 2.1-1.21-.3-1.56-.58-1.8 1.51-2.45 5.17-2.43v-2.44l1.86-2.44 1.8-2.44L91 72.5l.88-3.37.63-4.87h1.22l-.3-1.8-1.21-1.22-.34-6.1-2.74-.3-.58-4.87-3.37-1.56 1.22-1.5 1.86-.6 3.95-4.58-.34-2.43-2.44-4.88-3.61-.63-1.27 3.07-6.69 1.51-.63-1.51-4.88-6.1-2.73 1.52-3.66-.3-1.22-2.43-4.88.29-.3-5.17-2.72-1.85 3.95-4.24-7.03-9.46-5.46-5.8L43.43.59z" class="land departement21"/>
</svg>
