<svg xmlns="http://www.w3.org/2000/svg" id="svg2" width="100.17" height="100.57" version="1.0"><defs id="defs4"><clipPath id="clipPath3345"><path id="rect2227" d="M222 101h109v80H222z"/></clipPath></defs><style id="style6" type="text/css">.land{fill:#86aae0;stroke:#fff;stroke-width:.6}</style>
<path id="path105" fill="#86aae0" stroke="#fff" stroke-width=".6" d="M12.88 14.47l-5.1 2.46h-3.6L.4 19.98l.25 2.27L2.9 28.1l1.27 4.58 7.86 1.28 3.84 3.05 1.52-1.82 2.5 3.35-1.27 1.52-.25 4.53h-2.26l-1.77 2.8h-3.58l-1.48 6.07 3.44 5.51 4.91 1.23 1.82-2.76-.88 3.35 4.27 1.87 5.55 5.52 1.82 3.4-.59 3.98-.64 4.04 3.69 2.76 1.86-2.17-1.86-2.46v-5.52l3.68.89 1.23-3.7.93 2.17 3.98 3.4 1.87-3.1-1.87-4.28 3.39 4.62 4.27-.64-.88-2.16 3.98.93 3.04 3.7-1.52 2.46-3.98-1.23-4.62-2.17-2.45 3.1 3.68 1.23 2.75 4.29 16.6-1.53 4.28.94-2.11 1.82.3 2.8.58.45 1.33-.25 2.75-2.76 1.82 2.12h4.9l5.85-3.05 8.6-3.4.3-8.62 1.81-.98-3.24-6.1 2.8-2.27-.49-1.53-1.77-1.03 2.75-1.28L99.78 54l-.25-3.06h-3.29l-.79-3 2.31-3.05-2.55-4.58L91.43 38H87.1l-1.52-.49V35.5l2.26-2.06 1.28-5.08-.74-3.3-1.03 1.29-6.1-.5-2.8-5.12H76.2L72.66 22v3.3l-4.81 3.05-3.83-1.52-1.53-3.3-1.23 1.77h-3.58l-1.77-2.26h-1.77l-3.78-3.84-4.32 1.03-4.57-4.09-4.08.3-1.23 2.51-4.81 2.56-5.85-2.56-1.52-1.53-2.55 1.78-3.05-.25-.49-2.51-4.81-1.28z" class="land departement56"/>
</svg>
