<svg xmlns="http://www.w3.org/2000/svg" id="svg2" width="100.17" height="100.57" version="1.0"><defs id="defs4"><clipPath id="clipPath3345"><path id="rect2227" d="M222 101h109v80H222z"/></clipPath></defs><style id="style6" type="text/css">.land{fill:#a83c47;stroke:#fff;stroke-width:.6}</style>
<path id="path93" fill="#a83c47" stroke="#fff" stroke-width=".6" d="M18.4.59l-5.77 6.05-1.45 2.52.48 7.46 2.62-.34.34 3.3 1.02 5.27 1.65 3.63-2 2.28.98 1.65-1.31 2.32v.97l2.33 2.66v1.65l-1.02 2.62-3.3 4.94 3.3 1.3 1.02 2.33-1.36 3.58-.3 1.65-1.98 3.3v2.32l1.3.34v6.92l2.34 1.65-1.02 2.28.34 1.98 2.61 2.96 1.36-1.99v-1.65l2.62-1.3 1.99 1.3v4.94l-2 2.33-1.64 3.92 2.28 3.64 4.65 1.3-1.02 3-4.3.73 3.97 4.85 5.28-.34 4.6-1.65 4.66 2.66 1.65-1.3-.34-4.31 2.61-1.99 2.33 3.97 1.94 1.99 5.62-2.33 2.33-2.61h5.23l2.72 1.35.2-5.71-2.1-2.42 2.43-1.8 3.93-4.55 6.64-.29V76.3l3.34-2.76 8.2-1.5.58-4.56-3.3-1.79-1.84-6.34-4.85-.63-3-3-5.77-4.56 1.2-3.63v-5.77l-5.47-5.42-.58-4.26-5.19-5.43-1.79-7.26-2.13-.92-2.43-3.34-2.42 1.5.63 3.34-7.9 1.84h-9.07l.3-3.63V12.4l-7.28-2.13V6.64l-5.76-1.21L21.1.59z" class="land departement86"/>
</svg>
