<svg xmlns="http://www.w3.org/2000/svg" id="svg2" width="100.17" height="100.57" version="1.0"><defs id="defs4"><clipPath id="clipPath3345"><path id="rect2227" d="M222 101h109v80H222z"/></clipPath></defs><style id="style6" type="text/css">.land{fill:#86aae0;stroke:#fff;stroke-width:.6}</style>
<path id="path133" fill="#86aae0" stroke="#fff" stroke-width=".6" d="M43.63.6l.68 1.59-10.25 2.83-2.44 3.56-4.3-2.83 2.15 7.07h-3.91l-7.08-4.98-3.51 7.08 1.75 2.15v2.1l-3.57 4.63.4 7.76-5.67 6.73-4.02 14.49h.45l1.42 5.66 6.74 1.41v4.25l8.5 2.49v6.73l-.34 4.24h10.6l9.23-2.15-.74-3.9 2.84-1.76 2.83 3.91 2.5 1.07 2.09 8.5 6.06 6.33.68 4.98 5.5 5.43 3.11-.28 3.86-3.56 2.77-14.43 1.76-5.1 1.3-6.34 5.61-2.03 3.8.73 2.55 2.32 2.77-4.58 2.55-2.32V61.6l3.29-.23.8-3.34-2.84-3.8.45-1.58-1.98-1.7-5.33-7.86h-6.85l-2.04-3.06V27.31l-2.78-7.35-.5-9.12-3.58-.28-4.08-3.05h-1.02l-3.57 2.54-2.26-1.53-.51-3.5 2.55-1.3.22-1.25-1.47-1.3z" class="land departement37"/>
</svg>
