<svg xmlns="http://www.w3.org/2000/svg" id="svg2" width="100.17" height="100.57" version="1.0"><defs id="defs4"><clipPath id="clipPath3345"><path id="rect2227" d="M222 101h109v80H222z"/></clipPath></defs><style id="style6" type="text/css">.land{fill:#a83c47;stroke:#fff;stroke-width:.6}</style>
<path id="path171" fill="#a83c47" stroke="#fff" stroke-width=".6" d="M11.98.59L8.54 3.75l-4.87.28-1.7 1.74H1.6l-.18 3.44 1.7 2.8-.6 1.7-.55 1.97.27 1.1 1.43-1.1 1.38-2.52 2.85-.28 4.77-1.42 2.53 1.97 1.1 2.25.88 2.53v2.52l1.37 1.15v1.92l-1.37 1.7-.28 3.67 1.1 1.7.28 2.25.27 3.62 1.7 1.43 2.53 1.1-1.1 2.25 3.08 2.84-2.8 3.08.55 1.97 2.8 1.38v1.42h-3.36l-1.42 1.97.28 1.42 2.25 2.25-1.93 5.33-2.25 5.04 1.1 3.12v5.05l1.15 2.52h1.65l.87 1.43h-2.52l-2.25 1.1v1.7l2.8 2.52v3.95l2.8-.88 4.23.28.27 4.5 1.7.6-1.97 1.37-.28 1.42 3.08.55 1.98 2.53 9.28-.55 1.97-3.67h4.23l1.7-1.38 2.8 1.7L56 95.2l3.68.28 3.07-1.1 3.08-2.25 1.7 1.7.28-3.95 2.25-.87 1.15 3.67 3.35.28 3.4.87 1.38.27 4.83-2.25 2.52-1.7 2.25-2.8 4.5-1.69 2.95-.64-1.66-1.6 3.17.27.6-.6-3.4-1.1-4.78-3.35-4.22-3.12h-5.06l-5.33-3.08-4.23-.27v-1.15l-6.47-3.9L57.7 64h-3.69l-1.37-3.9L47 53.03h-5.61l-2.25-3.07h-4.5l.27-4.5-5.93-3.67.28-3.62h3.12v-3.12l1.1-2.25-2.52-2.53 2.25-3.9-1.7-4.5-1.38-1.14-3.67-7.85 1.42-2.25s-.11-1.84-.23-4.3H23.8L18.6.58z" class="land departement54"/>
</svg>
