<svg xmlns="http://www.w3.org/2000/svg" id="svg2" width="100.17" height="100.57" version="1.0"><defs id="defs4"><clipPath id="clipPath3345"><path id="rect2227" d="M222 101h109v80H222z"/></clipPath></defs><style id="style6" type="text/css">.land{fill:#a83c47;stroke:#fff;stroke-width:.6}</style>
<path id="path165" fill="#a83c47" stroke="#fff" stroke-width=".6" d="M55.2 10.26l-7.08 3.9-6.02 4.25h-5.97l-9.92 6.75-8.47 1.4-6.02-6.37-1.5.34v1.06l-4.85 2.06-.34 4.19-2.45 3.18L1.18 38l-.77 5.86 2.17 1.78h4.18l9.03 9.43-1.06 9.44 6.3 4.85 3.5-2.45 5.58 6.64.67 6.3 3.85 5.2 1.73 3.84 13.93.73 6.97-3.52 2.06 3.85 2.45.34 1.78-3.85 11.49-.34 4.51-2.45.73-4.52h10.08l1.4.78-1.17-4.47-2.85-1.78 3.9-3.52 6.02-.39 2.12-3.18-.39-12.72-1.4-7.43-6.01-2.12-6.35-8.87.33-5.3 1.84-3.85-3.23-1.12-9.92 2.12h-7.08l-6.36-9.54-.72-7.09z" class="land departement10"/>
</svg>
