<svg xmlns="http://www.w3.org/2000/svg" id="svg2" width="100.17" height="100.57" version="1.0"><defs id="defs4"><clipPath id="clipPath3345"><path id="rect2227" d="M222 101h109v80H222z"/></clipPath></defs><style id="style6" type="text/css">.land{fill:#86aae0;stroke:#fff;stroke-width:.6}</style>
<path id="path29" fill="#86aae0" stroke="#fff" stroke-width=".6" d="M45.03 7.4l-1.49 2.87-1.86 1.63-3.54.57 4.3 4.6v6.22l1.92.53-2.16 2.44v4.6l-3.54 5.4-7.84-.81-4.59-4.3-3.25.8 1.1 2.69-1.34 1.91-7.9 1.63L5.63 32l-1.77 1.58v4.26l-3.4.82.86 3.4 4.21.86h4.64l1.3 5.89-5.5 2.53v2.69l4.3 1.48v2.44l1.9 1.1 1.63-1.39h2.16l1.1 2.44h3.25l1.63-5.7h2.67l4.07-5.11 4.88.52.81 7.04 1.87 2.2 3-1.63 5.13 2.68 1.9 3.26 8.9 5.41 3.26 7.61v4.02l-5.7 3.26-3.68 3.3 4.6.34v5.98l6.83-.33 3.69.19 2.67-6.23 9.71-5.93-2.1-2.97 2.53-6.75 8.85 1.24 2.15-16.08 11.82-6.75v-3.83l-8.9-8.86v-6.8l-5.07-8.42-10.57-5.94-.81 4.65-4.26.43-1.24-4.65-4.26.82-.81 5.93-3.4-1.24-7.17-4.7-3.4 1.73v-8.47z" class="land departement30"/>
</svg>
